<?xml version="1.0" encoding="UTF-8" standalone="no"?>
<svg
   xmlns:dc="http://purl.org/dc/elements/1.1/"
   xmlns:cc="http://creativecommons.org/ns#"
   xmlns:rdf="http://www.w3.org/1999/02/22-rdf-syntax-ns#"
   xmlns:svg="http://www.w3.org/2000/svg"
   xmlns="http://www.w3.org/2000/svg"
   xmlns:sodipodi="http://sodipodi.sourceforge.net/DTD/sodipodi-0.dtd"
   xmlns:inkscape="http://www.inkscape.org/namespaces/inkscape"
   version="1.0"
   width="1131px"
   height="1131px"
   viewBox="0 0 11310 11310"
   preserveAspectRatio="xMidYMid meet"
   id="svg4136"
   inkscape:version="0.91 r13725"
   sodipodi:docname="SpartanLogo_White-Vectorized.svg">
  <metadata
     id="metadata4197">
    <rdf:RDF>
      <cc:Work
         rdf:about="">
        <dc:format>image/svg+xml</dc:format>
        <dc:type
           rdf:resource="http://purl.org/dc/dcmitype/StillImage" />
        <dc:title />
      </cc:Work>
    </rdf:RDF>
  </metadata>
  <defs
     id="defs4195" />
  <sodipodi:namedview
     pagecolor="#ffffff"
     bordercolor="#666666"
     borderopacity="1"
     objecttolerance="10"
     gridtolerance="10"
     guidetolerance="10"
     inkscape:pageopacity="0"
     inkscape:pageshadow="2"
     inkscape:window-width="1366"
     inkscape:window-height="705"
     id="namedview4193"
     showgrid="false"
     inkscape:zoom="0.5"
     inkscape:cx="242.69693"
     inkscape:cy="566.50759"
     inkscape:window-x="-8"
     inkscape:window-y="-8"
     inkscape:window-maximized="1"
     inkscape:current-layer="layer101" />
  <g
     id="layer101"
     fill="#000000"
     stroke="none">
    <path
       d="m 5930,11102 c -117,-59 -133,-71 -166,-126 -34,-56 -47,-89 -64,-153 l -11,-43 -50,0 c -36,0 -60,-6 -82,-22 -61,-41 -109,-102 -131,-166 -12,-34 -12,-46 0,-83 18,-54 33,-86 57,-120 14,-20 20,-49 22,-113 l 4,-86 -37,-19 c -20,-10 -51,-22 -69,-25 -17,-4 -35,-15 -39,-24 -4,-9 -13,-80 -20,-157 -50.063,-325.1124 -54.3044,-635.9476 -111,-951 l -8,-42 -40,18 c -243.4632,106.1432 -445.3382,167.5178 -675,236 -224.6486,53.0117 -444.3529,85.3352 -670,129 -234,41 -286,46 -549,50 -249,4 -283,3 -380,-16 -58,-12 -112,-26 -118,-31 -21,-17 -15,-40 26,-98 73,-102 168,-308 231,-496 89.9874,-228.4033 121.9314,-414.0678 160,-646 43.4663,-170.6714 70.9805,-379.7032 92,-494 11,-7 10,-389 -1,-428 -14.3881,-89.1307 -36.6941,-169.6978 -60.5355,-255.1421 -5.5669,133.5954 7.6311,217.5994 9.2118,248.4174 3.0503,59.4705 8.7347,110.0494 14.3237,172.7247 4,43 5,106 1,140 l -7,64 -46,18 c -71,28 -101,41 -175,75 -138.5583,55.5683 -267.6931,152.7101 -357,243 -93,96 -109,108 -139,108 l -34,0 6,-99 c 3,-55 10,-108 16,-118 37.5512,-189.0525 88.6436,-390.203 111,-568 80.8709,-405.915 157.3039,-899.1356 208,-1309 62.6668,-470.858 76.4637,-863.8694 239,-1328 96.0716,-261.8702 231.8207,-527.2962 369,-738 70,-106 118,-164 229,-276 188,-189 246,-240 362,-316 309.8951,-201.382 564.769,-273.3342 938,-409 476.8851,-85.2735 865.4488,-191.7471 1431.1612,-60 294.3623,73.6721 458.3821,124.5556 713.8388,279.3033 77,49 350,252.7678 400,299.7678 222,204 240,215.9289 306,313.9289 83.414,128.9358 172.0773,269.4996 235,398 68.0914,165.2936 134.628,348.7011 199,515 29.7962,129.5464 67.1639,242.1528 85,360 12.2322,97.8388 16,154 11,335 -5,218 -23,421 -38,436 -5,4 -8,17 -8,29 -58.6799,195.2435 -155.0129,450.7911 -230,555 -72.534,131.3264 -205.1649,324.8563 -273.5355,481.4645 -81.5293,199.4159 -134.2557,356.8355 -157.0416,507.4251 -24.4013,161.2652 -13.7368,319.2714 -12.2617,541.6459 3,61 11.8388,117.4645 7.8388,128.4645 -9,30 -50,27 -71,-4 -71.887,-73.4489 -161.1862,-172.593 -249,-240 -124,-95 -230,-154 -273,-153 -44,0 -44,1 -77,158 -68.4408,39.0542 136.4194,203.9123 105,245 -103.0142,358.0568 -200.2672,661.9473 -292.1073,978.5304 C 6696.5847,9302.7505 6633.8151,9620.8057 6490,9918 c 0,6 -19,12 -42,14 -33,2 -44,8 -46,22 -2,10 3,23 12,28 32,18 22,39 -78,171 -65,87 -61,60 -36,247 10,78 10,88 -8,125 l -20,40 24,29 c 76,89 92,196 50,328 -14,46 -29,88 -33,93 -5,6 -33,27 -64,47 -54,35 -107,55 -167,63 -15,2 -38,6 -52,9 -17,4 -48,-6 -100,-32 z m 175.125,-183 c 35,-13 65.625,-72.625 57.625,-125.625 -3,-24 -18.75,-46.375 -23.75,-48.375 -13,-8 47,-78 105,-123 16,-12 26,-25 22,-29 -4,-4 -10,-3 -14,3 -23,35 -161,52 -210,25 -11,-6 -34,-35 -51,-66 -17,-30 -36,-55 -41,-55 -13,0 -13,17 0,22 5,2 23,41 40,87 30,86 29,111 -6,111 -8,0 -26.1611,24.269 -38.1611,48.269 -23.681,38.557 -14.6633,53.392 1.3436,93.201 32,68 78.9425,86.53 157.9425,57.53 z M 5650,10724 c 0,-3 -13,-22 -29,-42 -48,-62 -71,-132 -71,-214 0,-65 -1,-70 -14,-52 -19,27 -39,103 -37,139 3,46 39,112 79,145 32,27 72,40 72,24 z m 158,-139.25 c 20.5342,-20.477 47.335,-44.215 73.6753,-67.147 7.1539,-6.229 17.3182,-14.106 18.8247,-23.853 -1.541,-1.541 -0.9024,-4.85 -8.6206,-2.63 -33.7911,9.723 -116.6324,79.729 -146.9486,132.027 -6.8579,11.83 -21.7976,36.88 -33.589,60.182 -14.7102,29.071 -19.6189,57.79 -5.7168,59.921 8.1848,1.255 10.2728,-13.605 16.4547,-29.662 21.6763,-46.398 46.5076,-89.052 85.9203,-128.838 z m 292,0.25 c 0,-3 -5,-15 -12,-28 -25,-49 -28,-58 -28,-92 0,-43 25,-117 56,-167 26,-41 28,-48 16,-48 -10,0 -83,113 -100,153 -21,49 -15,116 14,154 21,28 54,45 54,28 z m -132,-143 c 1,-38 45,-124 97,-190 l 45,-57 0,-105 c 0,-132 5,-149 41,-157 25,-5 29,-10 29,-41 0,-27 -8,-43 -36,-70 -34,-33 -35,-37 -29,-80 24.4165,-108.8118 66.0413,-213.3355 92,-322 73.0488,-261.6901 152.8625,-478.4533 213,-725 83.7743,-265.9752 143.1148,-558.2392 219.9804,-781.4181 24.4339,-69.0669 42.8847,-94.5144 69.0196,-107.5819 43.8772,-31.684 130.0428,-13.4106 163.1595,-47.2906 3.7762,-4.0991 52.9014,-148.6231 58.0651,-180.5231 0.9662,-5.9694 -71.7314,-4.287 -106.2246,-5.1863 -54,-1 -115,-7 -134,-12 -228,-62 -292,-73 -388,-69 -76,4 -112,11 -165,33 -175,71 -320,203 -477,432 -50,72 -158,173 -186,173 -11,0 -14,21 -14,115 0,79 4,117 13,125 6,5 24,19 40,31 15,11 27,29 27,40 0,30 31,119 41,119 5,0 32,23 59,50 38,38 50,58 50,81 44.5327,325.6757 90.7934,730.906 110,944 16.956,139.841 38.2549,269.5476 52,402 10,28 9,33 -18,57 -16,15 -41,33 -56,41 -25,14 -28,21 -28,64 0,84 9,110 44,125 38,16 80,63 108,122 18,39 22,42 42,32 15,-6 23,-19 24,-36 z m -419.1349,-228.27 c -4.3314,-27.031 -10.5278,-0.939 -12.1597,69.871 -0.5271,22.871 -1.6282,47.169 2.6416,61.523 3.9426,13.253 11.1224,17.656 12.0825,8.054 2,-21 -0.5644,-116.448 -2.5644,-139.448 z m 171.4319,125.643 c -4,-3 -13.297,0.627 -17.297,3.627 -2.4898,1.421 -7.8498,9.189 -17.4063,10.797 -23.1293,3.891 -67.4947,-1.828 -79.3197,3.585 -5.9401,2.719 -3.8847,14.06 6.8779,17.461 10.6372,3.362 29.8334,-1.178 49.2039,-4.983 15.8884,-3.121 43.8559,3.186 54.5679,-17.552 3.2125,-6.219 6.3733,-8.935 3.3733,-12.935 z m -17.6343,-167.306 c -10,-2 -30.6627,-1.067 -39.6627,0.933 -14.3265,3.819 -41.7264,12.49 -61.3679,11.386 -25.7236,-1.445 -43.1422,-13.319 -50.8703,-10.952 -40.7106,12.465 34.3398,26.48 48.5744,26.48 6.124,0 18.3516,-7.251 36.8917,-9.761 25.4614,-3.447 59.1099,-2.907 71.3563,-7.491 6.5029,-2.434 -2.8061,-9.889 -4.9215,-10.595 z M 6170,10094 c 0,-54 -4,-83 -10,-79 -5,3 -10,42 -10,86 0,46 4,79 10,79 6,0 10,-35 10,-86 z m -690.045,-92.626 C 5427.222,9648.1776 5412.755,9333.7637 5356,9002 c -14,-89 -23,-106 -45,-92 -12,7 -13,22 -3,97 7,48 16,138 22,198 36.2768,252.0162 54.8964,509.4967 91,755 11,77 23,104 43,97 7,-3 17.955,-15.626 15.955,-55.626 z m 900.8623,20.341 c -4.9593,-2.888 -7.2234,-7.03 -20.514,-7.712 -6.8916,-0.353 -12.1403,5.822 -19.5528,7.153 -15.0375,2.699 -31.1461,4.921 -46.7505,2.844 -32.8914,-4.916 -112.2023,-51.8853 -128.0731,-62.6708 -4.038,-2.7441 -14.063,0.5502 -13.0154,6.0797 10.1078,19.3866 33.0385,33.3841 56.9529,49.7761 37.6484,17.373 113.8745,45.602 170.009,27.983 15.6538,-6.272 25.4839,-19.181 0.9439,-23.453 z M 6236.8726,9937 c 4,-19 -0.7565,-30.8614 -7.7565,-26.8614 -5,3 -11.5468,22.1985 -11.5468,36.1985 0,25.6854 8.7457,34.143 14.6713,14.4747 1.4568,-4.8353 2.856,-16.3133 4.632,-23.8118 z m 138.9086,-39.3125 c -16,-2 -59.7812,-4.25 -70.7812,-9.25 -13.8513,-4.4178 -36.6758,-11.3342 -54.391,-18.7121 -10.0557,-4.1879 -16.1352,-9.7954 -23.7954,-12.0139 -12.2286,-3.5417 -20.9735,-0.3122 -16.3977,3.5545 7.7041,6.5103 22.6035,21.0785 46.4501,31.8757 32.9933,14.9385 76.2955,21.4903 99.5402,25.1083 32,0 46.375,-16.5625 19.375,-20.5625 z M 6287,9698 c 99.8419,-292.3937 166.578,-609.8825 247,-893 58.0562,-200.0739 119.4098,-413.7913 172,-590 25,-84 37,-143 31,-160 -9,-22 -47,-19 -47,3 -52.8844,224.3462 -119.8974,395.9472 -175,601 -98.9081,327.2803 -184.7151,682.7615 -266,979 -9,33 -9,45 1,57 15,18 25,19 37,3 z M 3156,9207 c 17,-17 43,-53 58,-79 42,-72 66,-68 154,27 l 64.375,81.5 66,-2.875 c 76.5,-4.125 65.75,-11.5 23.625,-45.625 -9,-7 -29,-29 -44,-48 -15,-19 -38,-48 -52,-64 -19,-21 -23,-33 -16,-40 6,-6 59,-12 119,-14 l 108,-4 57,58 c 31,32 56,60 56,63 0,3 8,15 18,26 16,19 22,20 81,10 l 65,-10 -77,-78 c -42,-42 -77,-79 -77,-80 0,-3 47,-13 184,-37 l 50,-8 59,51 c 32,28 66,62 76,76 l 18,24 77,-13 c 42,-8 76,-19 76,-25 0,-6 -15,-22 -32,-35 -57,-42 -118,-102 -118,-116 0,-8 10,-14 23,-14 25,0 133,-32 143,-43 11,-11 52,-8 59,3 3,6 48,42 100,80 l 94,70 53,-12 c 29,-6 57,-15 61,-18 8,-7 -161,-144 -186,-153 -15,-5 0,-36 20,-43 10,-4 45,-19 79,-35 33,-16 70,-29 82,-29 13,0 76,41 143,91 l 120,91 52,-19 c 50,-19 74,-43 43,-43 -8,0 -19,-6 -23,-14 -7,-13 -86,-84 -147,-131 -14,-11 -25,-27 -26,-36 0,-18 30,-41 70,-54 14,-4 39,-18 56,-31 40,-31 61,-30 108,6 22,17 42,30 45,30 3,0 7,-24 8,-52 1,-29 5,-75 8,-102 l 7,-50 -23,16 c -81.5116,50.6455 -134.1256,67.3278 -210,121 -138.6165,61.9344 -329.5723,130.603 -484,182 -35,5 -101,21 -175,41 -204.8794,44.8273 -403.7182,71.1035 -607,89 -71,5 -135,4 -208,-5 -58,-7 -105,-13 -105,-14 0,-1 6,-24 14,-53 8,-28 11,-54 8,-57 -3,-3 3,-15 13,-26 17,-19 20,-19 36,-4 10,9 21,25 24,35 9,26 25,24 23,-3 -1,-13 2,-49 6,-80 l 7,-58 -32,0 -32,0 7,-57 c 4,-32 10,-71 12,-88 3,-16 8,-53 10,-82 4,-38 10,-52 23,-56 15,-4 17,-14 15,-58 -1,-30 -5,-190 -8,-356 -3,-183 -9,-310 -15,-322 -6,-11 -12,-44 -12,-73 -1,-44 -3,-36 -14,47 -7,55 -20,150 -28,210 -11.6197,108.214 -25.1089,146.2595 -30,208 -35.2214,234.3565 -84.5542,460.1263 -121,662 -37.2887,191.9414 -93.5987,417.8239 -188,583 -22,10 -3,22 35,22 34,0 48,-6 73,-33 z m 450,-51 c -41,-60 -63,-82 -73,-73 -6,7 99,137 106,131 2,-2 -13,-29 -33,-58 z m 394,5 c 0,-16 -84,-111 -98,-111 -9,0 7,25 39,59 60,65 59,64 59,52 z m 362,-133 c -28,-29 -84.0741,-89.6325 -97.4976,-81.2705 C 4249.8458,8952.7602 4323,9010 4351,9039 c 28,28 54,49 57,46 3,-3 -17,-29 -46,-57 z m 380,-110 C 4714,8889 4623.3681,8805.0384 4612.7741,8812.676 4593.6079,8823.5996 4700,8903 4730,8930 c 30,27 57,46 60,44 2,-3 -19,-28 -48,-56 z M 3705,8779 c 44,-5 109,-12 145,-15 230.5344,-32.2859 482.202,-71.6149 610,-128 47,-14 94,-30 105,-35 11,-6 43,-17 70,-26 28,-9 77,-29 110,-45 33,-15 78,-35 100,-45 22,-9 47,-20 55,-25 8,-5 47,-25 85,-45 39,-21 93,-54 120,-75 l 50,-37 23,-104 c 20.692,-94.4342 44.7583,-189.8558 62,-284 25,-125 28,-141 43,-190 8,-27 26,-84 41,-125 14,-41 40,-122 57,-179 34.3395,-122.6406 90.3445,-244.5893 140,-344 51,-105 60,-130 48,-138 -216.8595,-54.1793 -433.4679,-150.5576 -613,-288 -67.8753,-47.9543 -124.7765,-98.9949 -187,-156 -38,-35 -119,-125 -138,-152 -70.6829,-59.1724 -111.2469,-144.8348 -151,-199 -51.0503,-95.9793 -96.3212,-166.7319 -127.1875,-266.9375 0,-10 -6.8125,-17.0625 -12.8125,-17.0625 -5,0 -10,8 -10,19 0,10 -7,32 -15,47 -8,16 -15,36 -15,45 0,8 -4,19 -8,25 -4,5 -19,36 -32,69 -13,33 -41,88 -62,123 -21,34 -38,65 -38,67 0,17 -105,134 -139,155 -23,14 -41,28 -41,32 0,5 -4,8 -9,8 -5,0 -48,24 -96,53 -47,28 -100,59 -118,68 -37,19 -193,59 -230,59 -14,0 -29,5 -32,10 -3,6 -48,10 -101,10 l -94,0 0,29 c 0,16 7,34 15,41 8,7 15,22 15,34 0,11 20,63 45,114 25,52 45,104 45,116 0,12 4,26 9,32 27,30 70.1612,253.3934 83,374 7.4784,53.9569 20.0141,109.576 23,156 30.2712,96.2683 18.628,370.6528 47,410 12,8 10,421 -2,429 -5,3 -10,36 -11,73 0,37 -4,87 -9,112 -4,25 -13,74 -20,110 -6,36 -15,73 -21,82 -19,36 -12,41 49,34 31,-4 93,-11 137,-17 z m 1340,-45 c -36,-36 -68,-64 -71,-62 -5,5 121,128 131,128 3,0 -24,-30 -60,-66 z m 530.1964,9.0614 c 15.0511,-6.6402 32.1991,-12.6707 42.4779,-23.047 12.9407,-13.0634 14.4924,-37.0084 4.4606,-37.0084 -2.5845,0 -13.0164,5.1432 -25.5606,12.7727 -11.7237,7.1305 -24.649,14.1605 -40.108,21.89 -78.9326,23.9385 -0.4663,2.3313 -79.3988,26.2699 -5.2394,1.5889 -54.5821,21.8348 -103.3772,19.2038 -15.2085,-0.8201 -26.2267,-0.5214 -33.9942,-3.2296 -8.7755,-3.0596 -13.5309,-9.1839 -17.8985,-10.6588 -13.4934,-4.5564 -10.9763,-2.4416 -21.6868,-1.69 -13.2565,0.9302 -12.5476,9.8783 -11.8927,10.9697 1.8316,2.6166 16.4077,13.5307 40.2632,19.351 27.0584,6.6018 65.1707,6.7196 110.7744,3.6526 59.4957,-4.0012 112.2822,-28.4665 135.9407,-38.4759 z m -71.7301,-121.8957 c 76.5463,-50.8838 40.3313,-45.3928 -28.4663,-11.1657 -41,16 -68,21 -101,17 -37.8223,-14.1229 -77.9024,-18.9512 -47.0247,5.5645 27,26 96.0488,41.5156 176.491,-11.3988 z M 5280,8568 c 0,-16 7,-45 15,-65 8,-19 15,-44 15,-54 0,-10 8,-26 18,-36 15,-16 17,-37 12,-217 -4,-147 -8,-200 -17,-204 -9,-2 -13,6 -13,25 0,16 -8,60 -19,98 -31,119 -42,204 -44,362 -2,144 -1,151 16,136 9,-9 17,-29 17,-45 z m 172.8256,-87.3733 c 78.3458,-58.8064 -3.2202,-17.6693 -45.1335,-16.2861 -11.2864,0.3725 -22.2342,1.0396 -28.3316,-3.8386 -23.9214,-19.138 -36.533,-0.014 -13.6248,20.4653 13,15 58.0899,15.6594 87.0899,-0.3406 z m -66.9237,-601.5936 C 5362.4823,7812.0549 5368.0654,7991 5369.0545,8120 c 0.9891,128.9962 -8.8801,268.3812 13.8801,242.6263 17.1661,-52.4715 2.3297,-419.2635 2.9673,-483.5932 z M 5565,7937 c 22,-24 60,-72 85,-107 69,-99 244,-268 342,-333 86,-57 122,-70 233,-88 63,-11 227,-3 254,11 9,5 63,21 121,36 82,22 134,29 238,31 124,4 132,3 132,-15 0,-10 -24,-42 -54,-70 -40,-36 -57,-60 -62,-86 -3,-20 -10,-39 -15,-42 -12,-7 -11,-181 1,-189 6,-3 10,-14 10,-23 0,-22 82,-103 135,-133 34,-19 54,-23 136,-23 108,0 148,14 203,69 55,55 68,90 72,189 2,66 -1,98 -13,120 -17,33 -83,119 -95,124 -5,2 -26,18 -47,36 -36,30 -43,32 -105,30 -36,-1 -66,2 -66,7 0,15 128,10 181,-7 51,-17 143,-90 160,-128 6,-12 19,-37 29,-56 11,-19 24,-51 29,-70 15,-51 16,-258 3,-306 -16,-54 -63,-117 -111,-150 -39,-25 -43,-26 -184,-22 -114,2 -149,6 -163,19 -32.5649,25.5573 -68.7083,37.3071 -104,59 -186.4067,88.8121 -355.4088,152.6916 -548.4645,165 -169.25,21.75 -528.7855,15 -612.5355,-3 l -67,-7 -49,75 c -57,86 -93,153 -93,173 0,8 -11,40 -25,71 -29,65 -30,76 -11,76 17,0 86,64 110,102 26,40 25,171 -2,223 -32,63 -93,117 -128,113 l -29,-3 -3,103 -3,103 38,-16 c 21,-8 56,-35 78,-58 z m 1129.8217,-49.1843 c -6,6 111.2156,159.7747 340.0963,112.2156 10.6045,-11.9961 6.3038,-19.798 -10.6607,-16.952 -173.8813,29.1701 -228.9545,-45.9257 -324.7102,-102.4854 -1.0594,-0.6258 -12.1189,-1.7923 -4.7254,7.2218 z m 187.9343,-31.491 -127.9771,36.3132 90.9211,52.338 z M 5554,7690 c 31,-46 43,-112 32,-173 -8,-45 -60,-97 -96,-97 -24,0 -29,5 -34,35 -6,31 -3,38 29,66 31,28 35,36 35,82 0,31 -6,57 -15,68 -18,19 -10,72 9,66 6,-2 24,-23 40,-47 z m 1964,-169 c -2,-109 10.7938,-236.7748 6.7938,-234.7748 -4,3 -32.7938,63.7748 -42.7938,86.7748 -27,60 -98,128 -160,152 l -62.25,18.75 92.5,60 c 47,30 108,71.25 128,88.25 20,18 39.5,39.25 41.5,39.25 2,0 -1.75,-101.25 -3.75,-210.25 z m -2083.9673,154.0872 c -4,-3 -12.3079,4.5831 -16.3079,7.5831 -1.1613,1.5484 9.535,12.9079 14.5977,28.2717 4.4075,13.3756 -1.0521,32.9915 1.8671,44.3796 2.39,9.3238 16.5717,17.0935 18.5031,17.0935 3.4127,0 -2.3755,-28.2406 -3.0426,-51.4934 -0.3616,-12.606 -0.7707,-26.6125 -2.6626,-35.7654 -1.7762,-8.5933 -12.2103,-9.0765 -12.9548,-10.0691 z m 1498.0078,137.5853 c 5.8962,1.4204 10.86,-6.8472 8.0837,-10.9687 -3.1923,-4.7389 -23.1526,-17.2283 -35.571,-22.3956 -17.4031,-8.8 -18.2683,3.4685 -16.8959,7.5966 2.9683,8.9284 32.0207,22.8544 44.3832,25.7677 z m 165.4622,-589.0402 c -24.9544,19.1694 -191.0503,502.9583 -192.8842,519.6536 -1.3225,8.4425 16.3995,15.5447 19.3924,6.8462 30.5251,-88.7185 169.9471,-486.8389 185.1528,-523.0802 0.1779,-0.424 0.3388,-0.9151 0.3075,-1.8218 -0.7277,-1.8872 -2.4709,-3.236 -4.5805,-3.9797 -2.0183,-0.9021 -5.4646,0.088 -7.388,2.3819 z M 7184,7259 c 77,-91 -43,-212 -137,-136 -31,25 -40,84 -17,112 11,14 15,10 31,-25 16,-36 22,-41 46,-38 27,3 39.8692,2.6921 37.8692,58.6921 -0.5236,17.5408 -17.3176,42.0074 -16.7707,51.6466 1.542,27.1792 39.8913,19.3481 55.9015,-23.3387 z m -4069,-77 c 19,-16 20,-24 12,-187 -4,-93 -11,-260 -16,-370 -14,-331 -21,-397 -43,-403 -20,-5 -24,-40 -9,-70 5,-9 14,-77 19,-150 13,-182 15,-185 148,-193 54,-3 142,-11 194,-17 244,-29 752,-47 835,-31 49,10 63,-1 41,-32 -81.1873,-209.4775 -79.9839,-558.9299 -48,-774 6,-33 14,-81 18,-108 26.5696,-125.0191 80.3074,-245.6898 129,-351 42.0978,-91.2335 133.2706,-254.9441 198,-323 89.3224,-108.9854 174.0254,-192.8553 283,-290 131.1584,-93.9818 238.0956,-167.042 369,-227 54.1573,-29.3362 125.7485,-53.3191 171,-74 280.0322,-91.4284 635.8962,-159.476 981.6517,-97.6066 65.403,6.8148 469.5087,110.6337 672.3483,256.6066 19,14 51,34 70,45 49,27 160,113 189,146 37.4225,34.6404 78.6576,66.5608 111,103 47.7631,48.5402 80.9118,102.2266 118,140 88.7783,112.3567 148.5988,205.8846 202,325 64.3147,141.849 99.4181,241.3152 131,385 19,90 31,228 32,350 0,156 -22.25,342.375 -34.625,389 -30.1231,138.054 -87.9633,259.0915 -140.5847,370.2322 -24.8786,55.6195 -54.246,112.3631 -89.2097,162.7678 -24.1745,43.5889 -48.9543,77.8945 -78.5806,113 -74.3897,100.66 -126.3677,162.9824 -210,238 -14.4078,23.6138 -146.144,99.2513 -132.75,130.25 35.086,9.047 79.1882,11.5667 117.2275,22.6479 44.2318,12.8851 81.8063,35.5856 111.5225,66.1021 58.3464,70.6351 103.3929,163.8087 111,250 6,67 14,66 27,-3 29.9628,-137.1822 82.3096,-275.3051 149,-381 89.5949,-160.4014 198.2804,-311.7426 285,-478 33,-64 100,-254 113,-320 46,-229 59.5,-288 63.5,-560 18.9476,-156.5413 -22.3087,-263.2557 -46.5,-405 -42.0138,-290.8684 -121.4576,-504.7322 -223,-710 -96.293,-172.741 -194.0021,-351.728 -337,-485 -84.7845,-93.6671 -198.1953,-157.7133 -286,-223 -306.335,-309.4664 -800.1982,-450.0438 -1277,-492 -269.3773,-36.3461 -565.8292,-3.9423 -795,40 -260.7624,65.7422 -375.7864,131.8765 -695,230 -254.0358,139.3712 -408.1978,215.6083 -618,377 -246.0122,209.4583 -390.2823,416.858 -527,688 -92.669,221.4849 -203.9117,476.3379 -235,720 -41.1135,328.1841 -83.6794,592.8874 -130,910 -45,301 -187,1173 -211,1297 -16,82 -13,103 15,93 67.7021,-42.9107 209.2079,-42.6169 266,-93 z m 3737,-542 c 35,-18 74,-42 88,-55 14,-12 39,-30 56,-38 99,-50 370,-314 450,-438 119,-185 224,-481 224,-630 0,-89 -55,-149 -137,-149 -23,0 -45,5 -48,10 -3,6 -17,10 -31,10 -13,0 -50,9 -81,20 -32,11 -63,20 -69,20 -22,0 -44,-31 -44,-61 0,-52 16,-69 63,-69 23,0 59,-3 79,-6 l 37,-6 -5,-47 c -2,-25 -9,-109 -15,-186 -8,-109 -16,-151 -34,-192 -23,-51 -24,-51 -77,-57 -29,-3 -73,-7 -97,-9 -42,-2 -45,-4 -74,-57 -16,-30 -42,-70 -58,-88 -16,-18 -29,-37 -29,-42 0,-6 -64,-75 -142,-153 -133,-133 -150,-146 -238,-189 -123.567,-61.8842 -274.0825,-107.4615 -390,-119 -58,-5 -114,-12 -126,-14 -25,-5 -64,-88 -64,-137 0,-64 -5,-68 -78,-68 -36,0 -79,4 -96,9 -17,5 -74,19 -126,32 -52,12 -102,26 -110,30 -8,4 -51,19 -95,34 -202,68 -325,150 -476,319 -147,165 -285,410 -304,541 -7,54 8,71 73,77 73,7 94,29 82,83 -28,122 -36,396 -15,493 l 7,32 -41,0 c -64,0 -101,23 -101,63 1,91 127,335 185,357 15,6 44,5 79,-2 69,-15 96,-4 128,51 13,23 28,41 33,41 9,0 33,-11 117,-52 10,-4 36,-8 58,-8 89,0 122,63 76,143 l -26,45 56,51 c 31,28 75,63 99,76 58,35 194,72 288,80 60,5 80,11 84,23 35.6745,66.1957 73.7315,128.4239 125,183 l 151,-7 c 197,-9 197,-9 197,-120 0,-78 2,-85 23,-93 12,-4 39,-6 59,-3 42,5 37,-6 59,147 12,89 26,117 72,146 43,27 98,21 179,-21 z m -3430,-74 c 16,-2 47,-7 70,-11 53,-8 143,-33 185,-51 17,-8 38,-14 46,-14 9,0 19,-4 22,-10 3,-5 13,-10 22,-10 33,0 134,-74 222,-162 50,-51 91,-96 91,-102 0,-5 6,-17 14,-25 39,-44 136,-243 136,-278 0,-11 6,-25 13,-32 23,-23 -494,-7 -873,28 -63,6 -119,11 -125,11 -5,0 -10,20 -10,45 l -1,45 56,-6 c 30,-3 66,-10 80,-14 48,-18 247,-33 461,-37 233,-4 249,-1 234,48 -8,23 -287,309 -302,309 -5,0 -24,14 -42,32 -28,27 -41,32 -94,36 -34,2 -66,8 -72,13 -5,5 -32,9 -60,9 -29,0 -55,3 -59,8 -13,12 -90,10 -118,-5 -33,-16 -36,-38 -8,-53 16,-9 18,-15 10,-30 -5,-10 -10,-57 -10,-104 l 0,-86 -26,0 -26,0 5,203 c 3,111 9,215 13,231 7,28 8,28 63,23 31,-4 68,-8 83,-11 z m 108,-254 c 0,-4 -18,-26 -40,-47 -44,-43 -49,-61 -22,-81 31,-24 51,-15 99,46 26,33 54,60 61,60 14,0 -31,-63 -63,-90 -22,-18 -18,-39 10,-52 24,-11 30,-7 85,47 33,33 60,54 60,48 0,-6 -18,-29 -40,-51 -44,-43 -50,-65 -22,-81 12,-8 -20,-10 -113,-11 l -131,0 -10,28 c -15,41 -4,68 56,133 52,56 70,69 70,51 z m 228,-172 c -35,-42 -56,-53 -39,-21 9,16 58,60 69,61 2,0 -12,-18 -30,-40 z m 97,-30 c 3,-5 -3,-10 -14,-10 -12,0 -21,5 -21,10 0,6 6,10 14,10 8,0 18,-4 21,-10 z"
       id="path4139"
       style="opacity:1;fill:#ffffff;fill-opacity:1"
       inkscape:connector-curvature="0"
       sodipodi:nodetypes="ccccsccccccccscccccccccccccccsccccccsccccccccccccccccccccccscccccccsccccccccccccsccccccscccsccscccscscccscscssssccscscsccscccscscccccccscccccssccssscccccscccccssccccssssscccssssscscssscccccccccsscsccccccsscccsssscccccccccscccccccscscccsccccsccccccscsscccccccccscccsccccccscccccccccscscccccccccccccccccccccscccccsscscccscccscccccccccscccccccccccccccsscscscscssccscscssscscccccccccccscsscssscssssscssccccccscscccscccscsscccscccccccccsccccscsscccccscccccccccccccscsccccccccccsscccccccsccscccsccccccssccsssssccscscccsscccccccccscccccccccccccccccscccccccccccccccscccccsccccccccccccccccccccccsscscsssccccccccccccccssscscccccccsccccscsccccccccsccccccccscscscsscsccccccscccsccccscccccccscccscccsccccccscscccs" />
    <path
       d="m 6012,10847 c -26.7903,-31 -22.2548,-51.442 1.3483,-77.326 33,-26 49.0936,-8.764 69.6517,-1.674 24,26 12.1612,65.348 -5,86 -8.3449,10.393 -41,20 -66,-7 z"
       id="path4141"
       style="opacity:1;fill:#ffffff;fill-opacity:1"
       inkscape:connector-curvature="0"
       sodipodi:nodetypes="ccccc" />
    <path
       d="m 4096,8505 c -129,-33 -161,-85 -176,-291 -27,-359 -40,-461 -74,-563 -13,-42 -34,-107 -46,-146 -12,-38 -25,-79 -30,-90 -5,-11 -19,-45 -30,-75 -12,-30 -28,-71 -37,-90 -32,-68 -63,-154 -63,-173 0,-47 34,-133 64,-162 18,-17 102,-65 187,-108 168,-86 205,-115 330,-264 39,-46 79,-88 90,-94 36,-19 99,7 137,56 49,64 218,230 271,267 27,18 85,61 130,96 45,35 107,77 139,93 119,61 205,134 232,194 30,71 33,114 10,190 -11,39 -24,86 -29,105 -43,167 -55,208 -90,315 -55,168 -133,342 -179,395 -59,70 -174,185 -207,207 -31,20 -150,82 -195,101 -110,46 -324,64 -434,37 z m 280,-186 c 147,-27 266,-118 336,-256 75,-149 102,-259 102,-418 0,-193 -58,-377 -164,-520 -86,-116 -262,-265 -313,-265 -9,0 -19,-4 -22,-10 -9,-15 -106,-12 -167,4 -77,20 -101,30 -216,89 -124,62 -182,111 -182,153 0,28 32,127 99,304 66,177 100,288 116,380 8,52 22,131 30,175 8,44 16,100 19,125 12,111 28,206 34,212 15,15 129,36 198,37 39,1 97,-4 130,-10 z"
       id="path4143"
       style="opacity:1;fill:#ffffff;fill-opacity:1"
       inkscape:connector-curvature="0"
       sodipodi:nodetypes="ccccsccsccccccscccccccccccscscccsccscscc" />
    <path
       d="m 4222,8237 c -16,-19 -4,-28 48,-37 35,-6 38,-11 26,-55 -3,-11 1,-28 8,-39 14,-18 16,-17 52,12 34,28 64,33 64,10 0,-6 -16,-33 -35,-59 -35,-50 -45,-92 -23,-105 7,-5 36,19 75,60 53,55 67,65 79,56 25,-22 15,-41 -62,-115 -67,-64 -76,-77 -70,-99 8,-31 24,-33 57,-7 25,19 134,81 143,81 3,0 10,-8 15,-18 9,-16 -3,-28 -89,-87 -84,-57 -100,-72 -100,-94 0,-14 5,-33 10,-41 8,-13 13,-13 37,3 36,23 149,77 163,77 23,0 7,-27 -30,-49 -21,-13 -50,-34 -64,-45 -14,-12 -43,-34 -66,-49 -40,-28 -57,-63 -46,-92 4,-13 25,-5 109,40 57,30 107,55 111,55 4,0 6,-7 4,-16 -2,-10 -57,-53 -122,-98 -100,-68 -121,-87 -132,-118 -18,-53 4,-56 77,-13 33,19 63,35 67,35 4,0 18,9 32,20 27,21 50,26 50,11 0,-10 -103,-83 -132,-94 -50,-19 -130,-80 -145,-112 -17,-36 -13,-55 9,-38 7,5 49,25 93,43 44,19 90,40 103,48 30,20 35,12 16,-27 -19,-39 -39,-49 -183,-95 -104,-33 -191,-81 -191,-106 0,-4 24,-1 53,7 28,8 68,18 87,23 19,4 50,13 69,19 46,14 50,7 16,-29 -18,-19 -52,-37 -94,-49 -95,-29 -191,-51 -228,-51 -45,0 -48,-15 -8,-39 52,-30 153,-54 200,-46 137,21 346,240 417,435 43,117 51,165 50,295 0,113 -3,140 -26,210 -62,187 -142,302 -237,344 -30,13 -63,28 -74,34 -11,6 -54,12 -95,15 -60,3 -78,1 -88,-11 z"
       id="path4145"
       style="opacity:1;fill:#ffffff;fill-opacity:1"
       inkscape:connector-curvature="0"
       sodipodi:nodetypes="ccsccscccccccsccsccscccccsccccscscccccscscccccsccccccscc" />
    <path
       d="m 5640,7720 c -13,-8 -12,-16 10,-56 34,-66 32,-137 -9,-227 -17,-38 -40,-81 -50,-96 -10,-14 -20,-35 -22,-46 -6,-37 24,-117 57,-152 l 34,-36 82,9 c 170,18 610,3 763,-26 33,-6 105,-31 159,-56 71,-32 102,-42 110,-34 6,6 11,54 12,108 1,99 9,140 47,250 22,63 22,64 3,78 -29,21 -130,18 -222,-7 -142,-38 -248,-59 -301,-59 -90,0 -240,38 -318,80 -112,62 -175,112 -220,174 -47,66 -88,106 -109,106 -6,0 -18,-5 -26,-10 z m 272,-378 c 78,-40 110,-51 184,-60 167,-22 305,-33 342,-27 46,8 197,52 237,70 29,14 56,8 71,-16 3,-6 3,-64 -1,-130 -7,-114 -8,-119 -29,-119 -12,0 -26,4 -31,9 -44,40 -427,91 -692,91 -208,1 -307,11 -334,36 -31,28 -24,68 24,123 73,85 101,88 229,23 z"
       id="path4147"
       style="opacity:1;fill:#ffffff;fill-opacity:1"
       inkscape:connector-curvature="0"
       sodipodi:nodetypes="ccccccccccsccccsccscccccccsccccc" />
    <path
       d="m 3263,5537 c -7,-12 23,-404 47,-602 11,-91 28,-180 45,-224 7,-20 21,-63 30,-96 34,-114 87,-240 161,-383 89,-172 113,-211 173,-282 175,-209 291,-315 494,-450 101,-67 383,-216 522,-274 22,-10 49,-21 60,-26 11,-4 47,-18 80,-30 33,-13 69,-26 80,-31 11,-4 43,-13 70,-19 267,-59 273,-60 355,-66 41,-3 129,-3 196,1 l 120,7 12,96 c 18,145 16,189 -9,202 -22,12 -169,51 -263,70 -33,7 -92,27 -130,45 -39,18 -96,44 -126,57 -86,38 -196,113 -361,247 -139,111 -221,192 -284,276 -55,74 -232,359 -270,435 -35,71 -101,258 -118,335 -24,108 -47,230 -57,304 -30,206 -42,310 -41,344 3,74 27,70 -398,71 -211,1 -385,-2 -388,-7 z m 444,-73 262,-6 5,-42 c 3,-22 13,-98 21,-168 16,-133 17,-137 59,-343 47,-228 102,-377 204,-552 116,-200 163,-275 212,-343 72,-99 275,-295 370,-357 47,-31 94,-64 105,-74 40,-35 158,-95 370,-189 64,-28 129,-50 149,-50 10,0 49,-9 87,-21 l 69,-21 0,-89 0,-89 -137,4 c -129,3 -191,13 -353,51 -36,9 -83,20 -105,25 -48,11 -142,44 -152,53 -3,4 -12,7 -19,7 -7,0 -56,21 -111,46 -54,25 -120,55 -148,66 -97,38 -199,97 -425,247 -150,99 -356,313 -457,476 -89,143 -199,401 -253,595 -11,41 -25,89 -30,105 -45,151 -77,394 -79,614 l -1,73 48,-6 c 26,-4 165,-9 309,-12 z"
       id="path4149"
       style="opacity:1;fill:#ffffff;fill-opacity:1"
       inkscape:connector-curvature="0"
       sodipodi:nodetypes="ccccccccccccscccccccccccccccccccccccccsccccccccscccccccccc" />
    <path
       d="M 3559.8388,5240.7678 C 3571.0572,5032.6227 3626.8364,4826.3368 3680,4630 c 68.3798,-243.3102 189.7472,-430.1764 318.4194,-574.1161 185.8128,-214 349,-360.1161 485,-455.1161 293.1113,-196.6654 626.2649,-383.9488 1000,-398.5806 27.5169,1.226 -63.3186,-3.0171 58.1483,1.6981 l 9.5309,69.3524 c -220.7279,38.1476 -331.478,68.9846 -491.4019,153.6462 -155,68 -465.6967,289.3483 -621.1161,439.3483 C 4283.5806,4019.2322 4245,4072 4171,4194 c -144,240 -227.4194,427 -260.4194,611 -28.7102,132.0858 -60.6059,327.9675 -64.4194,435.1682 z"
       id="path4151"
       style="opacity:1;fill:#ffffff;fill-opacity:1"
       inkscape:connector-curvature="0"
       sodipodi:nodetypes="ccccccccccccc" />
    <path
       d="m 6671,6624 c -18,-14 -31,-35 -31,-48 0,-12 -4,-26 -9,-31 -5,-6 -11,-57 -12,-114 -3,-98 -1,-105 20,-122 13,-11 28,-19 35,-19 22,0 151,-101 241,-188 136,-133 214,-257 290,-463 55,-148 80,-196 114,-214 65,-33 129,-49 198,-50 99,0 116,16 116,112 0,37 -8,95 -18,128 -98,338 -163,451 -409,703 -152,156 -321,279 -433,315 -66,22 -66,22 -102,-9 z m 173,-49 c 168,-86 371,-272 524,-481 105,-144 192,-345 226,-523 15,-76 11,-120 -10,-128 -8,-3 -47,11 -88,31 -40,20 -77,36 -82,36 -13,0 -54,43 -54,57 0,11 11,13 53,8 28,-4 60,-11 69,-16 9,-5 33,-9 52,-9 35,0 36,1 36,40 0,23 -7,55 -16,72 l -16,31 -104,-6 c -82,-4 -106,-2 -115,10 -17,20 -2,30 56,37 86,9 130,18 136,29 8,12 -6,63 -22,83 -16,19 -52,18 -144,-6 -58,-15 -81,-17 -91,-9 -8,6 -11,15 -8,20 6,11 73,41 127,59 49,15 61,38 42,82 -26,63 -36,64 -117,16 -40,-23 -79,-49 -87,-56 -12,-11 -16,-11 -29,2 -20,19 -10,31 74,93 74,54 81,78 35,124 -33,33 -69,38 -78,12 -6,-20 -103,-123 -114,-123 -4,0 -11,9 -14,21 -5,16 8,40 54,101 69,89 70,102 15,144 -33,25 -35,26 -53,10 -11,-10 -34,-53 -52,-97 -18,-43 -36,-79 -40,-79 -3,0 -12,6 -18,14 -9,10 -3,35 24,106 44,116 44,132 0,166 -47,35 -60,23 -75,-69 -6,-40 -17,-87 -24,-106 l -13,-35 -13,24 c -12,23 -11,58 6,210 6,53 5,56 -27,79 -54,40 -63,25 -69,-119 -4,-110 -7,-121 -20,-106 -29,36 -71,234 -57,271 10,24 47,18 121,-20 z"
       id="path4153"
       style="opacity:1;fill:#ffffff;fill-opacity:1"
       inkscape:connector-curvature="0"
       sodipodi:nodetypes="cscccsccccscccccccccsscsssccccccccccccccccscscccccsccccccccccccc" />
    <path
       d="m 6120,6544 c -15,-8 -42,-46 -69,-98 l -44,-86 -71,0 c -39,-1 -89,-7 -111,-15 -22,-8 -48,-15 -57,-15 -61,0 -240,-99 -253,-140 -4,-12 -1,-27 6,-36 6,-8 12,-41 13,-74 1,-54 -2,-62 -33,-94 -31,-32 -40,-36 -85,-36 -37,1 -66,9 -106,30 -69,37 -84,37 -100,1 -19,-47 -44,-64 -82,-57 -18,3 -52,9 -75,12 l -41,6 -47,-63 c -80,-110 -126,-220 -109,-266 8,-24 17,-28 76,-38 37,-6 69,-13 72,-15 2,-3 -2,-37 -9,-75 -28,-136 -29,-277 -5,-415 32,-179 36,-162 -43,-175 -38,-6 -73,-18 -78,-26 -32,-47 38,-201 182,-398 63,-86 249,-267 324,-315 66,-42 160,-90 210,-106 22,-7 45,-16 50,-20 26,-19 324,-100 369,-100 35,0 41,14 42,106 1,45 5,87 8,93 5,7 44,11 104,11 109,0 322,39 380,70 27,14 90,40 96,40 16,0 148,89 204,139 84,73 292,353 292,391 0,6 3,10 8,11 121,9 193,21 197,32 49,161 66,252 63,327 l -3,75 -65,2 c -36,1 -72,2 -80,2 -12,1 -14,14 -12,68 7,125 -23,251 -98,424 -68,154 -197,323 -319,417 -31,24 -67,52 -81,63 -36,30 -239,126 -280,133 -56,10 -64,18 -52,57 6,19 14,55 17,81 9,60 3,62 -146,77 -133,13 -126,13 -159,-5 z m 205,-85 c 2,-3 0,-30 -6,-60 -18,-95 -17,-101 16,-111 17,-5 59,-16 95,-24 108,-23 257,-105 360,-196 49,-44 90,-83 90,-86 0,-4 27,-40 59,-80 32,-41 82,-119 110,-175 78,-155 106,-271 117,-494 l 5,-93 80,0 81,0 -7,-32 c -42,-212 -44,-218 -97,-219 -24,0 -63,-4 -87,-7 -36,-6 -46,-12 -51,-32 -12,-45 -61,-134 -99,-180 -21,-25 -51,-66 -69,-91 -17,-25 -72,-83 -122,-127 -194,-172 -451,-262 -749,-262 l -79,0 -7,-67 c -4,-38 -9,-71 -11,-74 -7,-12 -127,10 -221,41 -90,30 -267,115 -303,146 -9,7 -34,26 -57,41 -49,33 -137,116 -198,187 -70,83 -209,326 -189,333 35,13 120,63 128,75 7,11 3,38 -13,90 -48,158 -52,184 -53,296 0,126 13,214 48,313 24,71 20,89 -22,89 -33,0 -94,28 -101,47 -4,9 7,43 26,79 l 33,63 44,-4 c 24,-3 64,-7 89,-10 46,-5 63,4 90,48 8,13 18,14 60,6 152,-29 168,-26 236,38 l 50,47 -2,103 c -1,57 -1,104 2,106 55,43 184,94 274,107 33,5 76,12 95,15 19,3 54,8 77,11 41,5 43,7 80,81 l 38,75 77,-4 c 43,-3 80,-7 83,-9 z"
       id="path4155"
       style="opacity:1;fill:#ffffff;fill-opacity:1"
       inkscape:connector-curvature="0"
       sodipodi:nodetypes="ccccsscccsccccccccccccccccccsccscscsccscccccccccccccccccscccccccccccccsccccccccccccsccccccccccccsccccc" />
    <path
       d="m 5871.5625,5970.5 c -64,-23 -187.375,-81.4375 -212.375,-101.4375 C 5589.1875,5814.0625 5523,5754 5488,5708 c -108.9456,-132.4821 -141.3371,-282.3132 -142.4194,-441 0,-186 11.4194,-219 69.4194,-342 41.3413,-66.8908 80.4145,-147.3477 136,-195 17,-14 48,-40 68,-57 51,-46 203,-119 288,-137 94,-21 255,-21 341,0 179.5314,51.8127 321.1631,143.9175 428,281 32,43 80,134 93,179 7,21 15,46 18,54 41.1438,145.0089 29.4375,304.565 -14.3038,444.7737 -20.415,65.4385 -51.265,126.6626 -80.6962,180.2263 -96.577,131.9132 -241.1944,239.9465 -380,285 -54,17 -88.25,30.625 -242.25,29.625 -99,0 -190.1875,-16.125 -198.1875,-19.125 z M 6108,5796 c 4,-68 2,-75 -18,-86 -36,-19 -50,2 -50,79 0,69 5,85 30,93 26,9 35,-10 38,-86 z m -279,32 c 27,-28 55,-103 47,-123 -3,-10 -15,-15 -28,-13 -28,4 -91,112 -83,139 8,25 40,24 64,-3 z m 590,-35 c 6,-13 1,-35 -18,-78 -33,-72 -55,-94 -79,-78 -23,15 -18,55 14,120 21,41 33,53 50,53 13,0 28,-8 33,-17 z m -204,-193 c 216,-101 285,-370 142,-554 -60,-78 -95,-102 -206,-141 -113,-39 -260,2 -349,99 -137,148 -139,377 -5,523 39,42 128,91 193,104 61,13 160,-1 225,-31 z m -595,-11 c 66,-49 73,-61 56,-84 -12,-17 -17,-17 -47,-5 -88,37 -132,120 -69,129 3,1 30,-17 60,-40 z m 1024,-35 c 22,-22 20,-30 -14,-54 -56,-40 -118,-62 -140,-50 -41,22 -25,49 53,85 84,40 81,39 101,19 z M 5593.5616,5301.7678 c 19,-7 21.5805,-21.3033 18.5805,-37.3033 -4,-27 -32.8388,-32.8839 -92.8388,-23.8839 -37,5 -65.2132,15.3033 -65.2132,34.3033 0,12 11.8388,31.3033 15.8388,34.3033 10,10 93.6327,3.5806 123.6327,-7.4194 z m 1122.8578,-60.3484 c 5,-7 7.8839,-25.4194 6.8839,-36.4194 -3,-23 -54.3033,-31 -117.3033,-18 -48,10 -70.4194,35.7678 -50.4194,59.7678 12,15 30.3033,19.5355 84.3033,14.5355 36,-4 72.5355,-12.8839 76.5355,-19.8839 z M 5665.6066,5030 c 0,-21 -25.6777,-30.6517 -67.6777,-44.6517 -29.6811,-9.8937 -58.7581,-21.0739 -79.7477,-20.2184 -25.6838,1.0469 -40.5016,16.3852 -44.9039,27.9412 -15,39 65.2582,77.6516 145.2582,73.6516 35,-2 47.0711,-14.7227 47.0711,-36.7227 z m 914.1434,-55.25 c 47,-21 53.25,-50.75 25.25,-74.75 -12,-10 -26,-9 -70,5 -63,20 -96.875,52 -80.875,83 13,22 54.625,17.75 125.625,-13.25 z m -741.625,-122.875 c 16,-19 3.625,-54.875 -34.375,-114.875 -24,-37 -41.625,-51.125 -58.625,-48.125 -36,5 -40,65.125 -3,124.125 20.1124,30.7971 43.155,53.0489 63.6743,55.5935 12.1282,1.5039 23.7815,-6.3168 32.3257,-16.7185 z m 537,-59.375 c 19.8919,-28.417 33.2272,-48.8022 34.9793,-65.6791 1.9472,-18.7572 -9.8254,-32.4459 -30.3543,-32.4459 -23,0 -63.75,39.625 -93.75,87.625 -14,21 -18.125,34.125 -9.125,51.125 8.7279,16.4861 25.1068,28.0249 41.3476,22.1449 17.2533,-6.2466 34.7525,-31.3479 56.9024,-62.7699 z m -273,-24.625 c 7,-9 7.875,-43.875 5.875,-88.875 -3,-75 -13.875,-102.75 -48.875,-89.75 -13,5 -23.5,25.75 -23.5,94.75 0,83 8.375,100.5 40.375,102.5 6,1 20.125,-10.625 26.125,-18.625 z"
       id="path4157"
       style="opacity:1;fill:#ffffff;fill-opacity:1"
       inkscape:connector-curvature="0"
       sodipodi:nodetypes="ccccccccccccsccccccscccccccccccscccccccccccccscccscccsccccccccsssccscccccccccsccsscssccccscc" />
    <path
       d="m 5990,5482 c -67,-25 -92,-46 -129,-107 -29,-47 -34,-66 -35,-118 -1,-53 3,-68 29,-107 40,-60 52,-73 102,-104 78,-48 201,-32 275,37 39,36 78,120 78,166 0,103 -68,200 -165,234 -60,21 -96,21 -155,-1 z m 104,-205 c 21,-16 18,-45 -6,-61 -35,-22 -74,27 -48,59 15,18 31,19 54,2 z"
       id="path4159"
       style="opacity:1;fill:#ffffff;fill-opacity:1"
       inkscape:connector-curvature="0"
       sodipodi:nodetypes="cccsccscccccc" />
    <path
       d="m 5257,4982 c -21,-23 -50,-190 -41,-230 14,-56 48,-107 131,-193 145,-151 345,-263 506,-285 39,-6 52,-1 123,40 115.174,65.9128 146.8236,110.1006 98.2483,132.9618 -21.4362,10.0887 -56.3605,6.7713 -110.2483,15.0382 -65,11 -128,23 -139,28 -11,5 -49,20 -84,34 -168,67 -285,183 -398,396 -42,80 -59,92 -86,62 z m 74,-163 c 8,-16 8,-28 0,-46 -9,-20 -7,-29 11,-54 17,-23 28,-29 48,-24 37,8 54,-8 47,-43 -8,-41 29,-77 71,-68 34,8 54,-10 50,-44 -2,-14 7,-29 25,-43 23,-18 31,-19 47,-9 11,7 26,12 35,12 16,0 34,-29 28,-47 -5,-13 35,-43 58,-43 9,0 19,7 23,15 10,27 43,17 55,-15 11,-33 27,-38 57,-15 25,19 60,19 68,-1 13,-35 -41,-84 -93,-84 -42,0 -127,19 -159,36 -15,8 -30,14 -35,14 -4,0 -49,26 -100,57 -98,60 -275,228 -310,294 -18,33 -18,35 2,82 23,52 52,63 72,26 z"
       id="path4161"
       style="opacity:1;fill:#ffffff;fill-opacity:1"
       inkscape:connector-curvature="0"
       sodipodi:nodetypes="cccccscsccccccccccccscsccccscscccc" />
    <path
       d="m 8422,8913 c -128.2317,-192.4994 -277.7782,-451.5091 -334,-643 -74.052,-189.9857 -95.6664,-357.6999 -92.5,-543 0.047,-178.0356 47.3317,-430.5899 109.5,-572 7,-16 34,-82 60,-145 53.2956,-131.129 93.4633,-220.1108 144,-344 44.9037,-112.0039 79.9467,-199.894 121,-296 97.6375,-235.2783 173.3073,-573.1921 192.75,-802.5 12.3712,-126.5373 32.5143,-306.3931 13.25,-452.5 -4.5641,-105.341 -40.4584,-233.4297 -42.25,-328.75 -25.5328,-137.255 -59.4988,-278.3656 -106.5403,-416.25 -27.4357,-87.8779 -64.8,-199.3974 -117.2097,-290 -28.6332,-80.6925 -77.0701,-140.7082 -108,-210 -63.3079,-111.484 -119.3717,-203.8641 -195,-299 -29,-35 -57,-72 -63,-82 -9,-15 -117,-139 -166,-191 -102.1463,-118.7667 -237.649,-237.3877 -355,-322 -69.9006,-62.4615 -106.2285,-77.5961 -196.3483,-141.4419 C 7078.8237,2708.9152 6978.2711,2641.2549 6602,2510 6268.1761,2385.6911 5938.866,2357.0715 5583.75,2344.25 c -151.5469,5.5711 -308.8419,23.7676 -438.75,34.75 -273.6649,24.6988 -521.2409,124.5174 -745,201 -132.9954,60.6181 -275.9341,130.467 -395,199 -116.349,76.5515 -240.1718,157.8727 -340,240 -61.677,51.6033 -123.5553,104.4219 -174,161 -242.8198,186.348 -421.45,512.4377 -611,710 -47.5971,-14.6439 -76.1804,-45.521 -110,-65 -44.8173,-35.2236 -80.1395,-59.6491 -115,-91 -22,-19 -55,-48 -74,-62 -65.978,-63.637 -137.4703,-127.8128 -199,-188 -32,-31 -93,-88 -137,-127 -44,-39 -97,-88 -117,-109 -46.732,-43.5992 -84.7174,-75.9661 -127,-115 -27,-27 -87,-82 -132,-123 -44,-41 -87,-81 -94,-87 -88.5051,-79.0534 -205.2164,-191.1335 -295,-272 -63,-57 -116,-108 -118,-113 -33.7019,-20.0853 -57.3909,-50.1589 -84,-75 -101,-92 -105,-97 -100,-139 3,-21 13,-51 23,-68 21,-34 223,-241 324,-330 67,-59 437,-349 643,-503 93,-69 515,-357 557,-379 11,-6 63,-35 115,-66 234,-137 496,-271 643,-328 56,-22 125,-51 152,-64 28,-14 88,-39 135,-56 47,-18 130,-49 185,-70 182,-69 233,-83 390,-105 55,-8 111,-17 125,-21 44,-11 300,-26 435,-26 271,0 947,40 975,57 5,3 46,10 92,16 77,9 248,43 463,90 50,11 108,24 130,29 22,5 67,16 100,25 33,9 110,29 172,46 62,16 163,50 225,75 146,58 158,63 191,80 16,8 32,14 37,14 20,0 310,135 350,163 25,18 70,45 100,61 77,41 232,143 315,208 39,30 77,57 85,60 25,9 178,125 245,186 35,31 77,67 94,80 30,23 100,105 208,245 30,40 69,88 86,107 33,37 35,41 100,154 21,38 72,121 112,185 39,64 107,186 150,271 43,85 91,180 107,210 15,30 50,118 77,195 27,77 59,166 70,197 12,32 21,65 21,74 0,10 6,40 14,68 8,28 19,76 25,106 6,30 18,93 27,140 9,47 20,117 24,155 5,39 16,122 24,185 9,63 20,174 26,245 6,72 16,180 22,240 10,102 8,303 -5,470 -3,39 -8,131 -12,205 -7,168 -42,403 -77,518 -5,18 -13,56 -18,85 -4,29 -20,99 -34,157 -39,154 -43,167 -61,255 -22,100 -56,208 -82,260 -11,22 -31,74 -43,115 -44,142 -128,315 -267,546 -57,95 -103,177 -103,183 0,11 -38,83 -49,91 -16,13 -78,137 -96,192 -7,24 -30,90 -49,147 -106,306 -106,464 -1,697 14,33 32,73 39,89 7,17 19,44 27,60 19,43 119,191 168,250 38,46 40,51 24,62 -10,7 -23,17 -30,22 -134,114 -385,271 -434,271 -9,0 -31,-17 -47,-37 z m 58,-72 c 0,-4 -8,-19 -19,-32 -10,-13 -33,-51 -51,-84 -19,-33 -46,-82 -62,-110 -30,-52 -54,-103 -70,-145 -11,-27 -21,-51 -66,-150 -16,-36 -32,-76 -36,-90 -75,-275 -78,-300 -72,-490 6,-185 19,-262 76,-459 23,-82 38,-116 116,-275 30,-60 54,-115 54,-124 0,-16 25,-72 105,-237 55,-114 135,-312 135,-334 0,-9 13,-55 29,-101 52,-155 84,-267 101,-360 5,-25 18,-88 29,-140 26,-127 45,-355 38,-460 -6,-78 -26,-234 -47,-370 -5,-30 -13,-84 -19,-120 -44,-283 -101,-463 -217,-692 -19,-37 -34,-71 -34,-76 0,-15 -86,-167 -146,-259 -30,-46 -54,-86 -54,-90 -1,-14 -128,-187 -212,-287 -143,-171 -456,-476 -558,-546 -341,-230 -330,-223 -349,-206 -10,9 -22,16 -29,16 -6,0 -57,-22 -114,-48 -57,-27 -120,-55 -141,-63 -29,-10 -37,-18 -33,-31 3,-14 -7,-24 -42,-42 -26,-13 -58,-27 -72,-31 -14,-4 -37,-16 -53,-27 -28,-20 -40,-24 -167,-59 -198,-55 -271,-72 -345,-80 -44,-5 -105,-14 -135,-20 -152,-31 -542,-42 -765,-21 -134,12 -302,35 -355,48 -14,3 -45,9 -71,14 -108,19 -304,83 -419,137 -41,19 -91,42 -110,50 -87,38 -159,75 -210,108 -30,19 -58,35 -62,35 -4,0 -37,18 -73,40 -36,22 -69,40 -73,40 -11,0 -159,97 -185,120 -12,12 -73,60 -135,107 -206,156 -486,452 -626,663 -52,78 -55,85 -41,105 9,11 18,28 22,38 10,32 28,17 91,-76 152,-220 232,-314 407,-477 76,-70 307,-263 343,-285 9,-5 22,-16 30,-23 22,-20 206.4194,-133.4645 256.4194,-160.4645 78.206,-43.0868 148.3412,-82.4022 219.4645,-117 C 4377.8839,2510.5355 4433,2485 4520,2460 c 41,-12 111,-32 155,-45 115,-34 207,-55 242,-55 16,0 43,-4 59,-10 28,-10 83,-18 294,-43 68,-8 208,-11 400,-9 356,4 466,15 675,66 61,15 117,30 125,33 8,3 20,7 25,9 24,6 204,77 250,99 28,13 80,33 115,45 65,22 120,49 320,152 128,67 196,110 320,203 125,95 349,312 469,455 53,63 106,126 119,140 68,75 199,295 306,513 138,282 158,334 192,497 16,78 20,94 49,220 10,41 19,86 21,100 3,14 9,50 14,80 39,222 39,535 1,790 -24,158 -55,309 -71,341 -5,9 -12,34 -16,55 -7,40 -25,93 -50,151 -8,17 -14,35 -14,40 0,6 -6,23 -14,39 -21,43 -144,329 -171,399 -20,53 -80,187 -121,269 -8,16 -14,36 -14,44 0,8 -16,48 -35,88 -19,40 -35,79 -35,86 0,8 -4,18 -9,23 -14,16 -32,74 -53,175 -16,73 -21,144 -25,310 -4,235 -2,255 69,485 37,122 33,114 102,255 98,202 180,344 213,370 27,21 53,26 53,11 z m 329.8614,-180.3483 c -20.2646,-11.5813 0.4419,1.3258 -60.3461,-8.7459 l -229.5421,130.8067 c -32.3222,27.0683 -21.7034,43.2367 22.9834,28.1879 41.6095,-14.0124 197.3761,-100.6221 266.9048,-150.2487 z m -218.6151,-66.2168 -136.1752,64.7037 c -16.7539,-19.7215 0,0 -43.6645,-51.6695 l 159.8656,-64.6485 125.2803,45.9733 c 15.5562,5.7086 7.0711,0 -105.3062,5.641 z m -58.3378,-60.1288 c -0.6909,0.1728 -31.0699,18.5626 -36.3407,18.812 -12.7523,0.6034 -39.3179,8.1583 -63.3356,18.2302 L 8380,8599 l 29,50 c 63,105 59,102 90,83 16,-9 72,-43 125,-76 53,-32 96,-62 96,-66 0,-13 -50.6517,-48.3969 -85.6517,-55.3969 -8.1497,-1.4382 -28.9885,-7.8622 -49.2206,-8.7986 -21.9714,-1.0169 -42.485,3.9684 -52.2192,8.5016 z M 8440,8510 c 41,-12 88,-25 103,-30 23,-7 41,-3 92,21 113,52 133,29 23,-27 l -65,-34 -59,19 c -32,10 -78,22 -102,25 -43,6 -82,25 -82,38 0,11 7,10 90,-12 z m 186.125,-203.6562 c 4.875,19.6562 4.8125,15.0937 -14.875,10.2187 -38.9375,-12 -115.75,-30.1875 -191.25,-6.5625 -30,7 -70,13 -88,13 -31,2 -35,-2 -47,-37 -8,-22 -12,-43 -9,-48 3,-4 22,-8 42,-8 20,-1 57,-5 82,-10 45,-9 77.9375,4.8125 177.9375,58.8125 14,8 27.3159,21.1066 35.3125,20.875 m 20.7971,-14.6179 c -26.1972,-17.1311 -50.4517,-28.0219 -85.9221,-45.7571 -95,-49 -97.125,-44.3125 -233.125,-22.3125 -46,7 -50,11 -53,37 -2,17 10,62 30,108 l 33,79 54,-6 c 30,-4 63,-10 75,-15 64,-24 107.6875,-30.4375 142.6875,-23.4375 103,19 102.875,23.4375 94.875,-2.5625 -4,-13 -12.4375,-45.3125 -20.4375,-64.3125 -8.7612,-21.9029 -17.9455,-34.1012 -22.8481,-30.3332 M 8600,8220 c 0,-18 -128,-141 -135,-130 -3,5 -15,10 -27,10 -31,0 -208,44 -208,52 0,13 45,13 133,0 l 89,-12 36,28 c 78,60 112,75 112,52 z m -316,-147 c 4,-5 38,-14 74,-21 37,-7 80,-15 96,-19 23,-4 33,0 52,22 34,40 54,28 54,-33 0,-91 -19,-164 -53,-200 -124,-133 -113,-125 -229,-158 -59,-17 -110,-28 -113,-26 -20,20 6,295 41,430 4,13 66,17 78,5 z m 259,-309 c 4,-4 -2,-19 -13,-34 -11,-16 -20,-32 -20,-38 0,-5 -13,-27 -28,-48 -25,-35 -40,-43 -119,-68 -95,-29 -151,-38 -159,-24 -3,4 2,8 11,8 8,0 23,4 33,9 26,13 112,39 154,46 29,6 40,14 52,40 9,18 16,35 16,38 0,3 9,22 21,41 20,34 38,44 52,30 z m 61,-234 c 9,-36 21,-74 26,-85 31,-72 30,-81 -10,-162 -21,-43 -47,-91 -58,-107 -23,-33 -210,-158 -224,-150 -26,17 -132,313 -142,402 -8,60 0,82 18,56 10,-12 17,-14 32,-6 10,5 64,24 120,42 l 101,33 43,64 44,64 16,-43 c 9,-24 24,-72 34,-108 z m 89,-276 c 3,-3 2,-14 -3,-23 -4,-9 -20,-43 -35,-76 -29,-64 -58,-102 -90,-116 -11,-5 -51,-29 -90,-54 -76,-49 -85,-52 -85,-30 0,9 21,28 46,43 25,15 66,42 90,60 23,17 46,32 49,32 15,0 33,30 59,98 25,65 41,83 59,66 z m 60,-85 c -8,-8 -4,-25 16,-63 15,-28 61,-114 101,-191 40,-77 86,-159 101,-183 l 28,-42 -47,-92 c -27,-50 -55,-95 -63,-100 -7,-4 -70,-35 -138,-68 -149,-73 -140,-76 -196,80 -35,100 -126,294 -146,315 -13,14 -11,25 6,25 8,0 50,24 92,52 43,29 92,60 108,68 22,11 43,41 82,115 28,55 52,102 52,104 1,2 4,1 8,-2 4,-4 2,-12 -4,-18 z m 283,-584 c 8,-20 -72,-184 -93,-191 -22,-8 -73,-29 -138,-58 -129,-59 -142,-64 -155,-56 -9,6 -1,15 28,34 23,14 45,26 49,26 4,0 35,13 68,29 33,15 79,36 102,46 43,18 56,37 99,145 17,42 31,50 40,25 z m 110,-189 c 37,-84 46,-108 50,-121 1,-5 12,-39 23,-74 12,-35 21,-71 21,-80 0,-9 5,-22 11,-28 7,-7 -2,-30 -32,-79 -91,-149 -115,-179 -161,-198 -23,-10 -51,-22 -60,-27 -10,-5 -23,-9 -30,-9 -15,0 -125,-44 -135,-54 -3,-3 -14,-6 -24,-6 -20,0 -20,1 -44,130 -9,47 -20,94 -25,105 -9,22 -59,187 -67,223 -4,16 -1,22 11,22 10,0 54,17 99,39 45,21 107,51 139,65 62,29 93,64 134,151 28,58 28,58 43,35 9,-13 30,-55 47,-94 z m 124,-467 c 0,-23 -61,-136 -95,-177 -15,-18 -49,-35 -96,-51 -41,-13 -81,-26 -89,-29 -72,-25 -146,-40 -155,-31 -16,16 29,43 133,78 177,59 181,61 199,94 30,60 83,137 93,137 5,0 10,-9 10,-21 z m 35,-130 c -4,-6 0,-16 8,-22 27,-23 77,-264 93,-454 5,-57 4,-62 -18,-73 -13,-7 -43,-29 -68,-49 -96,-78 -85,-75 -299,-79 l -194,-4 6,38 c 13,84 19,339 9,366 -11,26 -10,27 43,42 29,9 60,16 69,16 9,0 24,4 34,9 23,12 163,51 183,51 10,0 39,35 70,85 30,46 58,84 62,85 5,0 5,-5 2,-11 z m 125,-658 c 0,-10 -58,-61 -122,-108 l -45,-33 -221,0 c -219,0 -222,0 -222,21 0,21 2,21 158,15 199,-8 189,-8 242,0 25,3 54,14 65,24 30,27 126,90 136,90 5,0 9,-4 9,-9 z m 54,-133 c 9,-34 7,-391 -2,-405 -4,-7 -6,17 -4,53 3,37 0,70 -6,76 -7,7 -33,-1 -84,-25 -139,-68 -166,-75 -238,-66 -36,4 -98,15 -138,23 -40,9 -88,16 -107,16 -19,0 -37,5 -40,10 -8,13 -42,13 -50,0 -6,-10 -24,-96 -29,-140 -3,-31 -36,-41 -36,-11 0,11 7,50 16,88 17,71 32,156 40,234 l 6,46 111,-3 c 62,-2 165,-4 229,-5 l 117,-1 78,54 c 81,57 113,77 124,78 4,0 9,-10 13,-22 z m -7,-470 c -3,-8 -6,-5 -6,6 -1,11 2,17 5,13 3,-3 4,-12 1,-19 z m -32,-8 c -3,-6 -23,-18 -43,-28 -20,-10 -79,-40 -130,-66 l -92,-47 -63,16 c -34,9 -70,21 -79,26 -10,5 -23,9 -30,9 -7,0 -25,6 -40,14 -15,8 -42,17 -60,21 -18,4 -42,14 -53,21 -17,12 -17,14 -2,14 9,0 25,-5 35,-10 9,-6 78,-30 152,-54 l 134,-45 131,69 c 134,70 151,77 140,60 z m -618,-17 c -4,-3 -10,-3 -14,0 -3,4 0,7 7,7 7,0 10,-3 7,-7 z m 8,-94 c 55,-17 109,-35 120,-39 134,-51 191,-70 213,-70 15,0 57,15 92,34 64,34 219,90 226,83 9,-9 -131,-95 -223,-137 -77,-35 -105,-35 -175,-2 -34,17 -76,34 -93,38 -16,4 -34,10 -40,14 -5,4 -26,11 -45,15 -19,4 -39,10 -45,14 -5,4 -28,13 -50,20 -76,26 -106,42 -100,51 9,14 9,14 120,-21 z m -89,-127 c 24,-22 309,-132 341,-132 12,0 33,-5 47,-11 21,-10 35,-7 93,21 145,70 236,110 250,110 22,0 12,-155 -26,-414 -6,-38 -12,-70 -13,-71 -7,-5 -228,-113 -285,-139 l -62,-28 -38,20 c -21,11 -87,43 -148,72 -248,119 -335,162 -341,171 -3,5 8,43 25,84 42,99 104,286 103,308 -1,18 36,24 54,9 z M 2869,3818 c -6,-13 -32,-48 -58,-78 -45,-52 -87,-109 -181,-241 -25,-35 -76,-101 -113,-146 -88,-109 -211,-273 -374,-503 -72,-102 -138,-192 -146,-200 -17,-18 -117,-150 -205,-272 -48,-66 -70,-88 -93,-93 -42,-9 -439,6 -439,16 0,5 80,10 178,10 97,1 201,2 231,3 l 54,1 58,85 c 32,47 99,137 148,200 50,63 127,166 173,229 212,290 355,480 395,526 24,28 92,116 151,196 166,227 214,289 224,289 5,0 3,-10 -3,-22 z m 5826,-93 c 160,-72 226,-104 335,-163 l 46,-24 54,24 c 30,13 71,30 90,37 54,20 73,27 100,39 39,18 110,31 115,22 8,-13 -97,-61 -292,-134 l -72,-27 -138,69 c -76,38 -213,107 -306,152 -133,66 -165,85 -156,96 9,11 15,11 32,0 12,-8 99,-49 192,-91 z m -195,-46 c 50,-27 511,-250 537,-260 15,-6 38,-2 70,11 26,10 75,28 108,41 33,12 84,33 113,45 65,29 66,29 58,2 -3,-13 -13,-68 -21,-123 -9,-55 -20,-113 -25,-130 -5,-16 -24,-77 -42,-135 -21,-69 -41,-113 -57,-128 -13,-12 -26,-20 -29,-17 -3,3 -10,1 -16,-4 -6,-5 -85,-21 -175,-37 -123,-21 -166,-25 -169,-16 -2,7 -8,12 -12,12 -8,0 -461,335 -526,389 -17,14 -41,33 -53,41 -27,19 -23,42 22,113 18,29 38,61 45,72 6,11 35,57 63,103 48,76 53,81 63,61 6,-11 27,-29 46,-40 z M 2490,3504 c 0,-6 -147,-194 -165,-209 -15,-14 -147,-180 -265,-335 -60,-79 -52,-69 -127,-162 -35,-43 -71,-87 -80,-100 -10,-12 -41,-47 -69,-77 -28,-31 -77,-93 -108,-138 l -58,-83 -139,0 c -175,0 -181,6 -88,93 35,34 109,104 164,156 55,53 147,139 205,191 58,52 164,151 235,220 189,181 268,255 333,310 31,26 77,69 102,94 42,42 60,54 60,40 z m 385,-208 c 22,-41 58,-105 81,-143 61,-102 157,-269 197,-343 19,-36 58,-108 87,-160 29,-52 68,-124 88,-160 19,-36 58,-105 85,-155 28,-49 70,-126 95,-170 24,-44 50,-87 57,-95 34,-40 47,-83 41,-134 -6,-41 -31,-129 -42,-144 -5,-7 -170,50 -274,95 -138.6203,48.6922 -289.7044,104.3429 -420,148 -30,10 -68,23 -85,30 -103,43 -207,85 -250,100 -27,9 -59,22 -71,27 -11,5 -34,8 -50,6 -24,-2 -33,-12 -57,-61 -15,-33 -25,-66 -22,-75 3,-10 20,-27 37,-39 18,-13 53,-41 78,-63 48,-44 196,-160 282,-223 28,-20 68,-52 87,-70 20,-18 68,-57 106,-86 39,-30 86,-68 105,-85 19,-18 62,-52 95,-76 33,-24 66,-50 74,-58 8,-7 38,-31 68,-53 33,-25 51,-45 47,-52 -9,-16 -104,-149 -114,-160 -7,-8 -157,85 -392,244 -48,32 -91,59 -94,59 -4,0 -41,23 -83,52 -42,28 -244,164 -450,302 -443,298 -431,289 -431,297 0,3 19,26 43,50 23,25 62,68 86,95 24,27 89,96 145,154 55,58 126,135 157,170 l 56,64 74,-22 c 41,-12 128,-33 194,-47 123,-26 227,-55 350,-99 140,-50 198,-35 159,41 -10,21 -21,40 -24,43 -3,3 -13,21 -24,40 -10,19 -80,143 -156,275 -76,132 -150,266 -166,297 l -27,56 75,84 c 41,46 85,95 98,111 29,33 31,31 85,-67 z m 5388,-38 c 41,-29 116,-86 168,-125 52,-40 111,-85 132,-100 21,-16 43,-33 50,-38 6,-6 50,-39 97,-74 47,-36 92,-72 100,-82 14,-15 21,-16 85,-2 144,29 210,40 217,37 4,-3 9,0 13,6 8,13 72,13 80,0 3,-5 1,-11 -4,-11 -14,-2 -22,-4 -41,-12 -8,-3 -28,-8 -45,-10 -16,-3 -79,-17 -139,-31 -60,-14 -120,-26 -133,-26 -25,0 -59,23 -163,111 -30,25 -100,77 -155,114 -91,62 -158,110 -240,173 -17,12 -51,36 -77,53 -27,17 -48,34 -48,38 0,6 21,31 26,31 2,0 36,-24 77,-52 z M 3417.6517,2927.4194 c 87,-72 345.2326,-260.8909 352.6516,-263.8839 10.955,-4.4194 25.8839,-12.1161 48.8839,-28.1161 52,-35 154.0225,-96.3258 211.0225,-123.3258 23,-11 49.513,-24.4419 49.513,-29.4419 0,-14 -15.7227,-15.6517 -52.7227,3.3483 -29,15 -159,91 -197,114 -8,5 -35,22 -60,37 -25,15 -69,45 -99,68 -29,22 -74,56 -100,75 -149,110 -233.4194,176.1161 -342.4194,287.1161 -68,67 -195.3159,212.8567 -187.5235,217.0851 C 3054.1971,3291.3312 3165,3159 3233,3093 c 67,-67 151.6517,-139.5806 184.6517,-165.5806 z M 8182,3168 c 55,-40 321,-238 343,-256 47,-38 177,-133 208,-151 20,-12 37,-26 37,-29 0,-4 9,-13 19,-19 15,-10 34,-9 90,2 39,8 104,22 144,30 39,8 82,17 95,20 27,7 28,-4 2,-57 -11,-23 -20,-46 -20,-51 0,-16 -193,-396 -216,-424 -23,-29 -37,-31 -331,-49 -119,-8 -103,-16 -253,129 -321,310 -381,367 -438,417 -159,138 -146,123 -131,152 8,15 37,43 64,64 104,78 231,184 270,223 21,23 43,41 48,41 5,0 36,-19 69,-42 z m -386,-517 c 88,-85 184,-175 214,-200 30,-25 75,-66 100,-90 25,-24 79,-73 120,-109 41,-36 98,-88 127,-116 l 52,-49 108,12 c 59,6 142,16 183,21 108,13 140,12 140,-4 0,-21 -149,-43 -355,-52 l -90,-4 -65,61 c -68,65 -237,213 -298,264 -21,16 -80,71 -132,122 -52,50 -122,115 -154,145 -147,132 -152,137 -136,148 8,5 18,9 21,7 4,-1 78,-71 165,-156 z M 7350.2656,2516.75 C 7345.1563,2522.5781 7335,2545 7319,2562 l -28,32 27,13 c 15,7 63,42 107,77 44,36 84,65 89,65 5,1 34,-23 65,-51 31,-29 97,-89 146,-133 49,-44 191,-173 315,-287 124,-113 251,-227 282,-253 l 56,-46 134,15 c 175,21 228,21 228,1 0,-42 -149,-237 -288,-379 l -97,-98 -220,6 c -121,4 -224,11 -229,16 -6,6 -18,10 -28,10 -11,0 -26.75,11.0625 -33.75,27.0625 -7,15 -19.5,31.5 -23.375,42.9375 -9.4375,14.25 -141.375,262.375 -179.875,348 -8,17 -19,32 -23,32 -4,0 -8,6 -8,14 0,13 -12.6404,30.3258 -88.6404,169.3258 m -10.0563,64.3259 c 32,-59 168.7301,-313.5198 227.4645,-436.8129 34.3335,-72.0717 75.3583,-136.4204 91.4283,-165.1694 12.0836,-21.6175 31.3442,-54.0888 31.3442,-59.0888 6.875,-5 18.4798,-7.5113 29.5847,-9.0806 25.5,-3.25 154.1783,-14.545 344.1783,-25.545 l 111.4645,0.1871 87.2772,83.8579 c 87,88 103.955,100 88.955,112 -12,9 -78,12.8839 -244,12.8839 -199,0 -225.3483,-2.4194 -230.3483,11.5806 -8.625,9 -23.9017,33.4105 -35.9017,48.4105 -51,67 -172.75,241.125 -172.75,245.125 0,3 -5,10 -10,17 -6,7 -25,32 -43,56 -17,24 -51,69 -75,100 -23,31 -61,83 -84,116 -23,33 -48,64 -55,68 -7,5 -24,23 -36,41 -114,169 -119,175 -137,166 -9,-5 -22,-16 -30,-24 -7,-9 -18,-16 -25,-16 -10,0 -3.6967,-7.3483 10.3033,-34.3483 9.4674,-19.8815 64.552,-127.1748 67.8472,-141.2815 m -301.7755,120.9423 c 8,-22 25.9375,-64.375 38.9375,-94.375 14,-30 39.6875,-109.9375 65.6875,-175.9375 25,-66 53.8614,-122.2322 56.8614,-128.2322 1.7903,-6.7678 15.558,-36.5581 27.558,-69.5581 C 7331.4194,2009.2097 7412,1796 7430,1755 c 30,-67 70,-168 88,-220 11,-33 49,-127 83,-210 34,-82 62,-161 62,-175 0,-14 -11,-49 -24,-77 -19,-42 -33,-58 -71,-78 -35,-19 -52,-23 -65,-17 -10,5 -52,21 -93,35 -41,14 -127,44 -190,67 -63,24 -144,53 -180,65 -71,25 -232,89 -465,185 -82,34 -162,67 -177,73 -26,11 -28,16 -28,69 3.784,38.3446 7.32,78.7966 14.6967,109.3744 0,25 20.3033,22.6256 278.3033,151.6256 149,75 285,147 301,160 l 28,23 -12,69 c -7,39 -14,88 -16,110 -3,22 -14,108 -24,190 -11,83 -22,164 -24,180 -4,31 -2,33 94,75 14,6 36,17 50,25 33,20 44.375,16.3125 61.375,-29.6875 z M 7283,2482 c 79,-159 433.3033,-843.5581 472.3033,-916.5581 65,-124 36.4645,-106.9289 306.4645,-115.9289 127.1212,-9.3353 213.7899,-3.8688 238.7221,-11.0872 -0.2827,-3.1625 11.488,-17.7791 7.5441,-20.1496 -37.4468,-22.5082 -251.0184,-9.3852 -280.6857,-7.823 -160.3649,8.8205 -213.8632,8.2008 -242.6997,21.1259 -7.6272,3.4186 -10.1682,14.2545 -15.3003,19.8741 -2,10 -21,48 -42,85 -20,37 -78.3483,156.5468 -131.3483,263.5468 -52,107 -111,224 -130,260 -19,36 -78,153 -131,260 -53,107 -101,200 -107,207 -11,14 -1,36 12,28 5,-3 25,-36 43,-73 z m -463,-105 c 0,-37 -273,-153 -435,-186 -27,-5 -53,-7 -57,-5 -18,12 -5,22 35,28 42,6 211,57 252,75 80,36 157,77 167,88 14,17 38,17 38,0 z m -2502,-89 c 16,-40 44,-113 62,-163 18,-49 36,-99 40,-110 4,-11 17,-54 29,-95 12,-41 26,-84 31,-95 5,-11 23,-63 40,-115 17,-52 51,-147 75,-210 24,-63 65,-173 91,-245 25,-71 50,-139 55,-150 32,-73 124,-344 134,-395 3,-19 11,-47 16,-61 11,-28 -4,-73 -33,-96 -15,-13 -71,-1 -248,52 -53,16 -91,26 -225,59 -33,8 -85,22 -115,31 -74,21 -197,55 -240,65 -157,38 -258,64 -275,70 -11,4 -54,18 -95,30 -141,43 -127,29 -134,133 -3,51 -8,136 -12,189 l -6,97 28,24 c 32,28 33,28 170,-25 176,-69 250,-97 309,-117 33,-11 98,-34 145,-51 250,-93 230,-87 246,-65 8,11 12,29 9,40 -3,11 -15,54 -26,95 -11,41 -24,89 -29,105 -5,17 -18,66 -29,110 -23,85 -54,195 -76,260 -7,22 -21,67 -30,100 -9,33 -27,94 -40,135 -12,41 -30,102 -40,135 -15,53 -37,126 -64,220 -26,87 -25,92 16,103 21,5 72,10 115,11 l 76,1 z m 150,2 c 47,-27 241,-82 406,-115 61,-12 112,-27 114,-33 5,-17 -90,-6 -208,25 -52,13 -113,28 -135,33 -62,14 -208,74 -213,88 -5,15 12,16 36,2 z m 1755,-186 c 55,-84 55,-84 -48,-117 -49,-15 -99,-32 -110,-36 -43,-17 -190,-66 -377,-125 -94,-30 -111,-47 -84,-88 22,-33 460,-437 580,-535 l 38,-31 -33,-49 c -18,-26 -80,-113 -138,-193 -57,-80 -125,-174 -150,-209 -25,-35 -60,-80 -77,-100 -17,-20 -36,-46 -42,-58 -7,-13 -37,-30 -79,-46 -144,-52 -127,-52 -212,0 -63,39 -205,139 -356,250 -16,12 -56,40 -87,62 -87,60 -137,110 -158,159 -25,56 -25,56 7,102 26,36 29,37 63,28 19,-6 40,-13 45,-17 6,-4 66,-29 135,-56 69,-26 139,-54 157,-61 116.8162,-17.19165 220.0052,-100.31456 337,-114 16,0 74,55 179,168 55,59 66,76 58,90 -5,10 -54,52 -108,93 -54,41 -100,77 -103,80 -3,3 -79,61 -170,129 -91,68 -167,127 -170,130 -3,3 -34,27 -70,54 -36,28 -126,99 -200,160 -74,60 -136,110 -137,111 -2,1 30,92 55,156 12,30 -18,25 318,53 99,8 191,17 205,21 13,3 110,10 214,16 105,6 228,14 275,18 47,4 112,8 145,9 l 61,2 z"
       id="path4163"
       style="opacity:1;fill:#ffffff;fill-opacity:1"
       inkscape:connector-curvature="0"
       sodipodi:nodetypes="ccccccccccccccscccccccccccccccscccccccccccccccccccscccsscccsccccccccccscscssssccccccccccsccscccccccccscscccccccccscscccccccssccccsccccsccccccccccssscccccccccccccsccccsccccccccccccccccsccssssccccccscccscccscsccscccccscsccccccccsccccccccscccccccccccsccscsscccsccccscccccscssccssccscscccccccccccccccccccsscsccscscccccccscscccscccccscccccccsscccssscccscccccscccsccssccccccccccscscccsccsscccsscccscccscccsccccccccccccccsccccssscscccccccscccscsccccscccccscssccccccccccccccccccsccccccccsccccccccccscsccccccccccccssccscccccccscccccccsccsccsscccsccccccccccccccccccccscccccsccscscccccccscsccccccccccccccccccssccccssccsccsccscccscccccscccccscccccccsccsssccccsccccccccccccccccsccccscccsscccssccsscccccsccscccsccccscsccccccccscccsccccsccccccccccccscccscsccsscccscccccsccsssssccccccccccccccccccssscccscccccccccccccccccccccccssccccccccccccccsssscccccccscccc" />
    <path
       d="m 8462,7905 c -54,-28 -76,-34 -163,-40 -118,-9 -119,-9 -119,-132 l 0,-76 38,7 c 104,16 145,37 223,114 63,61 78,81 83,115 4,22 5,41 4,43 -2,1 -31,-12 -66,-31 z"
       id="path4165"
       style="opacity:1;fill:#ffffff;fill-opacity:1"
       inkscape:connector-curvature="0"
       sodipodi:nodetypes="ccscccccc" />
    <path
       d="m 8517,7385 c -43,-41 -84,-75 -90,-75 -7,0 -36,-16 -66,-35 -29,-19 -57,-35 -63,-35 -17,0 0,-79 29,-137 14,-29 27,-53 29,-53 6,0 110,66 149,95 30,22 52,54 88,128 48,97 48,98 35,139 -8,23 -18,43 -24,44 -5,2 -44,-30 -87,-71 z"
       id="path4167"
       style="opacity:1;fill:#ffffff;fill-opacity:1"
       inkscape:connector-curvature="0"
       sodipodi:nodetypes="sscscsccccs" />
    <path
       d="m 8839,6837 c -15,-23 -38,-61 -53,-84 -14,-24 -33,-43 -42,-43 -9,0 -29,-10 -46,-21 -16,-12 -56,-34 -88,-50 -66,-32 -65,-23 -22,-137 23,-60 24,-61 30,-84 6,-26 23,-23 119,26 49,24 104,51 123,59 28,11 42,29 73,88 21,41 37,84 37,96 0,21 -89,192 -100,192 -3,0 -17,-19 -31,-42 z"
       id="path4169"
       style="opacity:1;fill:#ffffff;fill-opacity:1"
       inkscape:connector-curvature="0"
       sodipodi:nodetypes="ccscccccccssc" />
    <path
       d="m 9149,6198 c -18,-24 -51,-62 -73,-86 -38,-41 -61,-54 -191,-112 -93,-41 -115,-55 -111,-66 6,-17 25,-123 28,-159 3,-36 10,-36 113,1 173,62 177,65 222,134 23,36 46,70 50,76 44,58 54,90 43,132 -20,80 -34,122 -41,122 -4,0 -22,-19 -40,-42 z"
       id="path4171"
       style="opacity:1;fill:#ffffff;fill-opacity:1"
       inkscape:connector-curvature="0"
       sodipodi:nodetypes="ccccsccccsc" />
    <path
       d="m 9334,5449 c -65,-68 -108,-82 -329,-103 -113,-11 -133,-17 -139,-39 -3,-12 -6,-55 -6,-94 l 0,-73 176,0 176,0 94,68 94,67 -4,55 c -9,96 -18,150 -25,150 -4,0 -20,-14 -37,-31 z"
       id="path4173"
       style="opacity:1;fill:#ffffff;fill-opacity:1"
       inkscape:connector-curvature="0"
       sodipodi:nodetypes="cccsccccccsc" />
    <path
       d="m 8640,4018 c -7,-18 -22,-52 -33,-75 -24,-51 -18,-62 51,-88 26,-10 74,-31 107,-46 33,-15 80,-37 105,-48 25,-11 52,-25 60,-30 8,-5 48,-26 88,-46 86,-42 63,-47 273,54 137,65 149,78 149,157 0,18 5,36 10,39 13,8 13,42 1,50 -5,3 -34,-6 -65,-20 -30,-14 -58,-25 -61,-25 -3,0 -44,-18 -89,-41 l -83,-41 -49,16 c -27,9 -58,21 -69,26 -11,4 -51,19 -90,31 -66,21 -230,88 -267,109 -24,14 -24,14 -38,-22 z"
       id="path4175"
       style="opacity:1;fill:#ffffff;fill-opacity:1"
       inkscape:connector-curvature="0"
       sodipodi:nodetypes="sccsssccscccsccccccs" />
    <path
       d="m 8308,3457 c -40,-62 -45,-73 -31,-82 8,-5 52,-38 97,-72 44,-34 131,-98 191,-142 61,-44 120,-89 132,-100 12,-12 24,-21 27,-21 3,0 35,-22 71,-50 36,-27 74,-50 84,-50 23,0 128,18 171,30 19,5 69,17 111,26 85,18 85,18 118,119 29,90 30,111 6,107 -11,-2 -51,-9 -90,-15 -38,-7 -74,-15 -80,-18 -5,-4 -47,-10 -92,-13 -64,-6 -83,-4 -90,6 -8,15 -173,118 -187,118 -4,0 -22,10 -39,23 -37,26 -64,42 -92,56 -11,5 -37,21 -58,35 -21,14 -40,26 -42,26 -2,0 -38,20 -78,45 -41,25 -76,45 -78,45 -2,-1 -25,-33 -51,-73 z"
       id="path4177"
       style="opacity:1;fill:#ffffff;fill-opacity:1"
       inkscape:connector-curvature="0"
       sodipodi:nodetypes="cccccscsccccccccsccssccc" />
    <path
       d="m 2752,3250 c -39,-38 -72,-72 -72,-76 0,-9 100,-196 120,-224 30,-42 93,-163 163,-310 25,-52 68,-142 96,-200 28,-58 78.4004,-134.5165 78.4004,-138.5165 -74.3889,17.1805 -254.0826,59.7852 -327.4004,77.5165 -165,42 -245,63 -270,71 -14,5 -52,16 -85,26 -33,9 -76,25 -95,34 -19,10 -51,19 -70,22 -33,5 -38,2 -80,-51 -58,-72 -321,-341 -335,-342 -5,0 -20,-13 -33,-29 l -23,-29 88,-66 c 244,-185 627,-451 826,-575 49,-30 94,-59 101,-65 6,-5 21,-15 31,-22 11,-7 62,-38 113,-70 51,-32 100,-62 110,-68 10,-5 32,-20 49,-32 17,-13 35,-23 40,-23 13,0 63,57 63,71 0,22 -40,60 -146,139 -60,45 -128,98 -152,117 -23,20 -78,63 -121,97 -287,225 -551,455 -551,482 0,14 64,137 91,176 20,28 46,36 65,20 12,-10 147,-62 239,-91 39,-13 79,-26 90,-31 11,-5 49,-19 85,-31 36,-12 79,-27 95,-34 17,-7 93,-34 170,-59 77,-26 149,-51 160,-56 11,-5 54,-21 95,-36 168,-59 180,-58 180,8 0,24 -7,53 -15,64 -21,30 -131,245 -139,272 -7,20 -68,133 -196,362 -52,92 -66,117 -143,255 -27,50 -65,117 -83,150 -35,61 -100,194 -125,253 l -14,33 z m 58,-145 c 27,-50 59,-110 71,-135 13,-25 43,-77 66,-117 24,-39 43,-74 43,-77 0,-3 18,-36 41,-73 23,-36 44,-74 47,-82 9,-22 76,-140 127,-226 23,-38 51,-88 63,-110 86,-169 161,-305 180,-328 21,-24 12,-29 -21,-12 -15,8 -60,24 -100,36 -39,12 -85,28 -102,35 -16,7 -55,20 -85,29 -30,9 -64,21 -75,25 -11,5 -47,18 -80,30 -33,11 -69,24 -80,29 -11,5 -36,16 -57,25 -20,9 -41,16 -46,16 -13,0 -189,64 -287,105 -77,32 -162,64 -186,70 -30,7 -17,22 -164,-193 -64,-92 -81,-125 -72,-133 7,-6 66,-49 132,-96 118,-83 225,-163 235,-173 3,-3 50,-39 105,-80 55,-40 121,-84.5 146,-106.5 107.9494,-86.2656 179.0239,-135.0958 264,-213.5 17,-15 55,-44 85,-64 30,-20 50,-36 43,-36 -6,0 -44,22 -85,50 -180.1899,115.0129 -387.4589,257.8657 -518,343 -200,130 -544,374 -604,428 -10,9 3,24 134,159 36,37 100,103 143,148 62,64 82,79 95,72 40,-21 93,-41 148,-56 202,-55 290,-79 379,-101 55,-13 109,-28 120,-33 15.2357,-6.7219 309.2873,-91.1134 321,-78 4,6 3,13 -2,17 -5,3 -42,71 -82,151 -40,80 -88,174 -108,210 -20,36 -72,135 -116,220 -44,85 -97,184 -117,220 -67,122 -90,177 -78,189 6,6 15,10 20,8 5,-1 30,-43 57,-92 z"
       id="fivePath"
       inkscape:label="#path4179"
       style="opacity:1;fill:#ffffff;fill-opacity:1"
       inkscape:connector-curvature="0"
       sodipodi:nodetypes="csscsccccccccccccccsccsscccscccssccscscccccccccccsccccccccsccscscccccscccssccsccccccccssscscc" />
    <path
       d="m 7863,2964 c -43,-31 -89,-67 -103,-80 l -24,-24 29,-30 c 16,-16 34,-30 41,-30 7,0 14,-4 16,-9 2,-5 30,-33 63,-62 33,-28 167,-156 299,-283 131,-127 244,-237 252,-243 15,-15 34,-17 34,-4 0,4 85,10 190,13 133,4 194,9 205,18 19,16 105,193 105,216 0,11 -5,14 -17,10 -9,-4 -78,-9 -153,-13 -164,-6 -155,-10 -319,124 -64,52 -123,100 -131,106 -135,108 -183,148 -287,239 l -122,107 z"
       id="path4181"
       style="opacity:1;fill:#ffffff;fill-opacity:1"
       inkscape:connector-curvature="0"
       sodipodi:nodetypes="ccccsscccsccsccccccc" />
    <path
       d="m 7023,2515 c -49,-32 -53,-38 -53,-74 0,-22 4,-42 9,-46 6,-3 9,-13 9,-23 -1,-9 4,-42 10,-72 21,-98 23,-114 33,-200 12,-102 26,-235 25,-235 -1,0 -71,-35 -156,-77 -85,-42 -211,-100 -280,-128 -69,-29 -136,-57 -148,-63 -29,-14 -50,-53 -61,-113 l -9,-45 82,-38 c 44,-21 110,-48 146,-61 87,-30 181,-65 227,-85 21,-9 47,-21 58,-25 11,-4 38,-15 60,-23 22,-9 51,-19 65,-22 14,-4 39,-12 55,-20 118.2704,-27.3048 244.3743,-85.9826 346.9775,-127.9064 15,-3 35.0225,-15.0936 50.0225,-23.0936 35,-19 42,-18 77,12 18,15 33,39 37,60 3,19 10,37 15,40 19,11 7,51 -50,168 -91,189 -125,268 -178,426 -8,25 -21,59 -28,75 -26,63 -39,94 -91,225 -30,74 -58,144 -64,155 -8,20 -30,85 -34,108 -2,7 -6,19 -9,27 -3,8 -20,60 -37,115 -17,55 -36.4375,105.375 -38.4375,112.375 -6,17 -10.5625,15.625 -68.5625,-22.375 z m 7,-171 c 0,-11 3,-24 7,-28 4,-4 15,-32 26,-64 19,-59 25,-78 51,-174 9,-32 24,-77 34,-100 10,-24 27,-68 36,-98 10,-30 26,-73 35,-95 10,-22 26,-60 35,-85 57,-142 264,-567 295,-604 8,-9 8,-21 2,-40 -10,-24 -12,-25 -38,-11 -62,33 -118,55 -152,61 -50,9 -144,40 -226,75 -11,5 -42,16 -70,25 -27,9 -63,22 -80,29 -16,6 -57,22 -90,34 -33,13 -69,27 -80,32 -11,4 -45,18 -75,29 -30,11 -64,25 -75,29 -11,5 -47,19 -80,32 -142,52 -151,61 -82,80 23,6 56,17 72,24 17,7 55,21 85,31 30,11 57,22 58,27 2,4 9,7 17,7 7,0 43,13 81,29 68,28 241,94 278,106 18,5 18,13 12,133 -4,70 -12,131 -17,136 -5,6 -9,21 -9,35 0,33 -40,250 -50,276 -14,33 -23,123 -11,105 6,-8 11,-24 11,-36 z"
       id="fourPath"
       inkscape:label="#fourPath"
       style="opacity:1;fill:#ffffff;fill-opacity:1"
       inkscape:connector-curvature="0"
       sodipodi:nodetypes="csccccsscccccccsccccccccccccccssccsscccccccccccccccsccccccsccccsccs" />
    <path
       d="m 7030,1617 c -127,-48 -169,-65 -192,-77 -10,-6 -23,-10 -30,-10 -7,-1 -31,-9 -53,-20 -22,-11 -45,-19 -51,-20 -5,0 -32,-10 -58,-23 -55,-26 -52,-31 34,-66 30,-12 64,-26 75,-31 11,-4 36,-14 55,-21 19,-6 92,-36 161,-65 239,-101 515,-198 531,-187 6,3 6,8 2,12 -5,3 -19,26 -31,51 -13,25 -29,54 -35,65 -12,17 -24,36 -75,120 -7,11 -17,31 -23,44 -6,13 -22,37 -35,53 -14,16 -25,35 -26,41 -1,22 -104,160 -124,167 -13,4 -58,-8 -125,-33 z m 188,-97 c 50,-75 128,-203 180,-294 5,-9 -30,-1 -63,15 -11,5 -79,31 -151,58 -73,27 -172,68 -220,91 -49,23 -111,52 -139,65 l -50,24 40,16 c 22,9 49,20 60,25 55,24 96,40 160,61 39,13 74,27 80,31 21,18 43,-1 103,-92 z"
       id="path4185"
       style="opacity:1;fill:#ffffff;fill-opacity:1"
       inkscape:connector-curvature="0"
       sodipodi:nodetypes="cccscccccccccccscccccccccccccccc" />
    <path
       d="m 7073,1556 c -18,-6 -35,-15 -39,-19 -4,-4 -15,-7 -25,-7 -30,0 -69,-22 -69,-39 0,-24 59.375,-58.625 167.375,-110.625 116,-55 143.625,-68.375 161.625,-47.375 10,13 2,32 -53,116 -56,84 -93,126 -108,120 -2,-1 -17,-7 -35,-13 z"
       id="path4187"
       style="opacity:1;fill:#ffffff;fill-opacity:1"
       inkscape:connector-curvature="0"
       sodipodi:nodetypes="ssssccccs" />
    <path
       d="m 4160,2305 c -19,-7 -36,-17 -37,-22 -4,-10 6,-49 47,-188 28,-99 67,-242 100,-370 16,-60 43,-157 60,-215 47,-154 60,-200 72,-245 38.6722,-98.8387 67.8758,-208.4198 105,-293 8,-19 12,-36 9,-39 -10,-10 -618,187 -711,231 -80,38 -220,96 -231,96 -29,0 -31,-26 -13,-165 10,-77 18,-141 18,-142 3,-9 78,-39 174,-69 61,-20 121,-39 132,-44 28,-11 58,-23 70,-26 6,-1 37,-10 70,-19 33,-9 71,-19 85,-22 14,-3 79,-21 145,-40 66,-19 149,-41 184,-49 35,-8 68,-17 75,-21 6,-4 31,-10 56,-14 25,-3 88,-16 140,-28 89,-20 96,-20 108,-4 16,22 15,37 -7,124 -19,72 -184,584 -202,624 -4,11 -18,45 -29,75 -11,30 -25,64 -30,75 -5,11 -30,79 -55,150 -26,72 -53,144 -60,160 -7,17 -28,71 -45,120 -78,222 -93,261 -101,270 -5,5 -9,17 -9,26 0,24 -48,79 -68,78 -10,-1 -33,-7 -52,-14 z m 30,-118 c 0,-5 6,-23 14,-40 8,-18 26,-68 40,-112 14,-44 47,-145 74,-225 28,-80 71,-210 97,-290 26,-80 53,-158 60,-175 28,-68 75,-203 75,-217 0,-7 4,-18 8,-23 5,-6 19,-39 31,-75 12,-36 26,-74 31,-85 5,-11 19,-45 30,-75 12,-30 26,-64 30,-75 5,-11 13,-33 18,-50 6,-16 13,-39 18,-49 10,-26 -10,-23 -251,44 -44,12 -89,26 -100,30 -11,5 -54,18 -95,30 -44.9552,6.21219 -88.6316,39.49869 -133,40 -13,0 -50,8 -83,19 -32,10 -77,23 -99,29 -22,6 -76,21 -120,33 -44,11 -89,24 -100,29 -11,4 -40,14 -64,22 -44,14 -45,15 -58,78 -15,78 -25,160 -19,160 3,0 18,-19 34,-42 35,-50 57,-76 118,-140 37,-38 54,-48 97,-56 29,-5 75,-17 102,-25 28,-8 73,-20 100,-27 28,-7 59,-16 70,-21 11,-4 38,-10 60,-14 40,-6 122,-29 160,-45 84.6572,-24.88123 176.572,-60.63096 252,-74 l 42,-6 -9,27 c -28,94 -62,201 -70,218 -5,11 -18,52 -30,90 -21,70 -25,79 -53,145 -8,19 -18,46 -22,60 -4,14 -11,30 -14,35 -4,6 -22,57 -41,115 -18,58 -36,114 -41,125 -4,11 -12,40 -18,65 -6,25 -18,68 -25,95 -8,28 -26,95 -40,150 -15,55 -30,109 -35,120 -18,40 -71,202 -71,216 1,10 5,8 15,-5 8,-11 15,-24 15,-29 z"
       id="sevenPath"
       inkscape:label="#path4189"
       style="opacity:1;fill:#ffffff;fill-opacity:1"
       inkscape:connector-curvature="0"
       sodipodi:nodetypes="sccccccscscccccssssccccccssccccscsscscssscsscccccccccsccccsccccccccccccccscccscccccs" />
    <path
       d="m 5990,2113 c -51,-2 -252,-21 -470,-43 -52,-6 -171,-15 -265,-20 -233,-14 -235,-14 -264,-75 -38,-79 -34,-102 21,-139 198,-131 713,-532 808,-630 30,-31 37.2513,-29.4835 71,-56 16.5128,-12.9741 46,-29 33,-38 -5,-4 -13,-14 -19,-23 -19,-31 -173,-224 -222,-277 l -48,-53 -52,25 c -29,14 -56,26 -59,26 -10,0 -72,29 -290,136 -117,57 -224,106 -238,110 -14,3 -29,11 -32,16 -7,12 -64,-40 -64,-59 0,-7 4,-13 9,-13 5,0 28,-18 52,-39 53,-48 181,-147 285,-221 42,-30 129,-94 192,-142 64,-49 122,-88 129,-88 8,0 50,14 94,32 71,28 86,38 122,86 23,30 87,110 142,179 55,69 107,135 115,147 8,12 27,38 43,58 43,55 76,128 69,149 -13,33 -129,146 -370,356 -130,115 -258,226 -284,247 -26,22 -45,43 -43,47 3,3 25,10 49,13 25,4 80,19 123,33 43,14 96,30 118,34 40,8 156,41 185,52 8,3 26,8 40,10 46,9 236,70 259,84 1,1 -7,20 -20,42 l -23,41 -70,-2 c -39,-1 -96,-3 -126,-5 z m 39.4735,-104.4783 C 5999.4735,2001.5217 5874,1975 5835,1965 c -38,-9 -81,-19 -95,-21 -96.6195,-41.4428 -226.032,-46.1295 -320,-75 -19,-6 -57,-16 -83,-22 -27,-7 -48,-15 -48,-19 1,-7 182,-176 241,-225 14,-12 46,-38 71,-59 26,-22 64,-52 85,-69 174,-138 327,-280 353,-329 13,-24 9,-31 -80,-148 C 5859,865 5662,623 5618,577 l -27,-28 -53,38 c -29,21 -55,40 -58,43 -3,3 -13,10 -22,15 -57.6113,34.91591 -334.6191,214.48885 -401.3789,265.22304 -9.7209,7.38738 -4.4874,18.43241 -4.4874,19.19503 0,1.25439 12.3967,1.47381 25.4894,-6.92883 28.6573,-18.39163 78.1506,-48.48685 90.5058,-58.09647 19,-15 1.8651,0 43,-30.66265 4.8106,-3.58587 58.5338,-31.53373 119.5338,-70.53373 C 5442.6627,690.19639 5539,630 5559,630 c 13,0 100,91 195,205 37,44 88,105 114,134 72,84 112,138 112,153 0,15 -5,19 -117,110 -42,34 -85,71 -97,82 -12,12 -43,39 -71,61 -27,22 -52,43 -55,46 -3,3 -39,30 -80,60 -41,29 -106,79 -145,109 -82,66 -263,198 -347,255 l -59,40 48,8 c 26,4 129,11 228,16 99,5 214,16 255,25 135.6064,14.5043 273.9061,52.9778 394.6765,80.3072 58,13 120.7108,21.69 145.3297,22.3515 36.845,0.9901 2.4673,-15.137 -50.5327,-28.137 z"
       id="twoPath"
       inkscape:label="#twoPath"
       style="opacity:1;fill:#ffffff;fill-opacity:1"
       inkscape:connector-curvature="0"
       sodipodi:nodetypes="ccccccscccccscccsscccsccssccccccsccccccccccccccccccccccscssscscsccscccscccccsccsc" />
  </g>
</svg>
